<svg width="94" height="94" viewBox="0 0 94 94" fill="none" xmlns="http://www.w3.org/2000/svg">
<path d="M8.8125 5.875C8.03343 5.875 7.28626 6.18449 6.73537 6.73537C6.18449 7.28626 5.875 8.03343 5.875 8.8125V26.4375C5.875 27.2166 5.56551 27.9637 5.01463 28.5146C4.46374 29.0655 3.71657 29.375 2.9375 29.375C2.15843 29.375 1.41126 29.0655 0.860374 28.5146C0.309486 27.9637 0 27.2166 0 26.4375V8.8125C0 6.47528 0.928457 4.23379 2.58112 2.58112C4.23379 0.928457 6.47528 0 8.8125 0L26.4375 0C27.2166 0 27.9637 0.309486 28.5146 0.860374C29.0655 1.41126 29.375 2.15843 29.375 2.9375C29.375 3.71657 29.0655 4.46374 28.5146 5.01463C27.9637 5.56551 27.2166 5.875 26.4375 5.875H8.8125ZM64.625 2.9375C64.625 2.15843 64.9345 1.41126 65.4854 0.860374C66.0363 0.309486 66.7834 0 67.5625 0L85.1875 0C87.5247 0 89.7662 0.928457 91.4189 2.58112C93.0715 4.23379 94 6.47528 94 8.8125V26.4375C94 27.2166 93.6905 27.9637 93.1396 28.5146C92.5887 29.0655 91.8416 29.375 91.0625 29.375C90.2834 29.375 89.5363 29.0655 88.9854 28.5146C88.4345 27.9637 88.125 27.2166 88.125 26.4375V8.8125C88.125 8.03343 87.8155 7.28626 87.2646 6.73537C86.7137 6.18449 85.9666 5.875 85.1875 5.875H67.5625C66.7834 5.875 66.0363 5.56551 65.4854 5.01463C64.9345 4.46374 64.625 3.71657 64.625 2.9375ZM2.9375 64.625C3.71657 64.625 4.46374 64.9345 5.01463 65.4854C5.56551 66.0363 5.875 66.7834 5.875 67.5625V85.1875C5.875 85.9666 6.18449 86.7137 6.73537 87.2646C7.28626 87.8155 8.03343 88.125 8.8125 88.125H26.4375C27.2166 88.125 27.9637 88.4345 28.5146 88.9854C29.0655 89.5363 29.375 90.2834 29.375 91.0625C29.375 91.8416 29.0655 92.5887 28.5146 93.1396C27.9637 93.6905 27.2166 94 26.4375 94H8.8125C6.47528 94 4.23379 93.0715 2.58112 91.4189C0.928457 89.7662 0 87.5247 0 85.1875L0 67.5625C0 66.7834 0.309486 66.0363 0.860374 65.4854C1.41126 64.9345 2.15843 64.625 2.9375 64.625ZM91.0625 64.625C91.8416 64.625 92.5887 64.9345 93.1396 65.4854C93.6905 66.0363 94 66.7834 94 67.5625V85.1875C94 87.5247 93.0715 89.7662 91.4189 91.4189C89.7662 93.0715 87.5247 94 85.1875 94H67.5625C66.7834 94 66.0363 93.6905 65.4854 93.1396C64.9345 92.5887 64.625 91.8416 64.625 91.0625C64.625 90.2834 64.9345 89.5363 65.4854 88.9854C66.0363 88.4345 66.7834 88.125 67.5625 88.125H85.1875C85.9666 88.125 86.7137 87.8155 87.2646 87.2646C87.8155 86.7137 88.125 85.9666 88.125 85.1875V67.5625C88.125 66.7834 88.4345 66.0363 88.9854 65.4854C89.5363 64.9345 90.2834 64.625 91.0625 64.625Z" fill="#F8F8F8"/>
<path d="M17.625 82.25C17.625 82.25 11.75 82.25 11.75 76.375C11.75 70.5 17.625 52.875 47 52.875C76.375 52.875 82.25 70.5 82.25 76.375C82.25 82.25 76.375 82.25 76.375 82.25H17.625ZM64.625 29.375C64.625 34.0494 62.7681 38.5324 59.4628 41.8378C56.1574 45.1431 51.6744 47 47 47C42.3256 47 37.8426 45.1431 34.5372 41.8378C31.2319 38.5324 29.375 34.0494 29.375 29.375C29.375 24.7006 31.2319 20.2176 34.5372 16.9122C37.8426 13.6069 42.3256 11.75 47 11.75C51.6744 11.75 56.1574 13.6069 59.4628 16.9122C62.7681 20.2176 64.625 24.7006 64.625 29.375Z" fill="#F8F8F8"/>
</svg>
