<?xml version="1.0" encoding="UTF-8"?>
<svg width="24px" height="24px" viewBox="0 0 24 24" version="1.1" xmlns="http://www.w3.org/2000/svg" xmlns:xlink="http://www.w3.org/1999/xlink">
    <!-- Generator: Sketch 55.2 (78181) - https://sketchapp.com -->
    <title>bitcoin-cash</title>
    <desc>Created with Sketch.</desc>
    <g id="Token-Keys" stroke="none" stroke-width="1" fill="none" fill-rule="evenodd">
        <g transform="translate(0.000000, -270.000000)" fill-rule="nonzero" id="Cryptocurrency-/-Isologo-/-24px-/-Bitcoin-Cash">
            <g transform="translate(0.000000, 270.000000)">
                <circle id="Circle" fill="#F7931A" cx="12" cy="12" r="7"></circle>
                <path d="M15.0922281,11.0691433 C14.9898305,11.7614122 14.6060062,12.096553 14.0964618,12.2140411 C14.7961414,12.5782762 15.1522006,13.1368442 14.8130226,14.1051767 C14.3921042,15.307819 13.3921176,15.4093162 12.062282,15.1576831 L11.7395409,16.45094 L10.9596757,16.2566072 L11.2781966,14.9806736 C11.0760669,14.9304803 10.8694948,14.8771776 10.6567033,14.819433 L10.3370719,16.1013631 L9.55809522,15.9070303 L9.88083634,14.6113303 C9.69869751,14.5646904 9.51367112,14.5151633 9.32486867,14.4678572 L8.31,14.2148914 L8.69715607,13.3222932 C8.69715607,13.3222932 9.27178187,13.4750943 9.26400765,13.4637674 C9.48479545,13.5184027 9.5827506,13.3744854 9.62139957,13.2785405 L10.1313883,11.2341596 C10.1600418,11.2410446 10.1878069,11.2481516 10.213795,11.2545923 C10.1826981,11.242155 10.1544888,11.2341596 10.132721,11.2286073 L10.4965544,9.76922357 C10.5061056,9.60354098 10.4490206,9.39454995 10.1331653,9.31570637 C10.1453819,9.30748887 9.56675792,9.17489838 9.56675792,9.17489838 L9.77421849,8.34204359 L10.8497261,8.61055597 L10.8488376,8.61455367 C11.0105413,8.6547528 11.1771317,8.69295307 11.3468318,8.73159754 L11.6664632,7.451 L12.4458842,7.64533279 L12.1326942,8.90083363 C12.3419317,8.94858397 12.552502,8.9967785 12.7575192,9.04786026 L13.068488,7.80057692 L13.8483531,7.99490971 L13.5289438,9.27595143 C14.5136041,9.6150899 15.2337188,10.1234645 15.0922281,11.0691433 Z M13.3103772,13.5674856 C13.5622619,12.5576214 11.8670381,12.2964382 11.3383912,12.164514 L10.9101429,13.8810832 C11.4387897,14.0123411 13.0693765,14.5358181 13.3103772,13.5674856 Z M13.5516001,11.0551514 C13.7806064,10.136346 12.3628111,9.93157473 11.9225682,9.82185999 L11.5343015,11.3787432 C11.9745444,11.488458 13.3317008,11.9359786 13.5516001,11.0551514 Z" id="Combined-Shape" fill="#FFFFFF"></path>
                <path d="M7.17679634,5 C4.95558473,6.53339139 3.5,9.09671068 3.5,12 C3.5,14.9032893 4.95558473,17.4666086 7.17679634,19 L1.5,19 C0.671572875,19 1.01453063e-16,18.3284271 0,17.5 L0,6.5 C-1.01453063e-16,5.67157288 0.671572875,5 1.5,5 L7.17679634,5 Z M16.8232037,5 L22.5,5 C23.3284271,5 24,5.67157288 24,6.5 L24,17.5 C24,18.3284271 23.3284271,19 22.5,19 L16.8232037,19 C19.0444153,17.4666086 20.5,14.9032893 20.5,12 C20.5,9.09671068 19.0444153,6.53339139 16.8232037,5 Z" id="Combined-Shape" fill="#F7931A"></path>
            </g>
        </g>
    </g>
</svg>