<svg width="291" height="291" viewBox="0 0 291 291" fill="none" xmlns="http://www.w3.org/2000/svg">
<path opacity="0.7" d="M39.5351 97.2464C39.5351 97.2464 23.3089 139.15 46.1117 181.345C68.9144 223.54 115.882 245.831 153.473 264.891C191.065 283.952 230.099 274.669 248.648 243.451C267.196 212.232 241.757 189.947 241.722 145.43C241.687 100.913 248.386 89.1275 224.262 51.5186C200.138 13.9098 141.001 5.58138 96.2801 33.4766C51.5592 61.3719 39.5351 97.2464 39.5351 97.2464Z" fill="#E0E0E0"/>
<path d="M136.84 20.7888C209.008 14.3868 209.153 55.0861 241.681 93.0325C274.209 130.979 281.164 148.177 268.884 191.92C256.604 235.663 215.34 269.949 164.205 250.522C113.071 231.095 83.808 249.748 51.571 232.48C19.334 215.212 7.339 181.898 30.9566 142.613C54.5741 103.328 47.8287 28.7156 136.84 20.7888Z" fill="#FFAD2F"/>
<path opacity="0.7" d="M136.84 20.7888C209.008 14.3868 209.153 55.0861 241.681 93.0325C274.209 130.979 281.164 148.177 268.884 191.92C256.604 235.663 215.34 269.949 164.205 250.522C113.071 231.095 83.808 249.748 51.571 232.48C19.334 215.212 7.339 181.898 30.9566 142.613C54.5741 103.328 47.8287 28.7156 136.84 20.7888Z" fill="white"/>
<path d="M184.898 38.2055L71.4624 50.8291L89.011 208.52L202.447 195.897L184.898 38.2055Z" fill="white" stroke="#263238" stroke-linecap="round" stroke-linejoin="round"/>
<path d="M184.898 38.2064L71.4619 50.8301L73.89 72.6484L187.326 60.0248L184.898 38.2064Z" fill="#BFBFBF" stroke="#263238" stroke-linecap="round" stroke-linejoin="round"/>
<path d="M153.381 48.2593L104.411 53.7068C104.184 53.7182 103.961 53.7758 103.756 53.8762C103.552 53.9765 103.37 54.1175 103.221 54.2906C103.073 54.4636 102.962 54.6651 102.894 54.8826C102.826 55.1001 102.804 55.3292 102.828 55.5558C102.851 55.7824 102.921 56.0017 103.032 56.2005C103.144 56.3992 103.295 56.5732 103.475 56.7117C103.656 56.8502 103.864 56.9504 104.084 57.0061C104.305 57.0619 104.535 57.072 104.76 57.0359L153.73 51.5884C154.158 51.5236 154.545 51.2954 154.809 50.9516C155.073 50.6079 155.193 50.1753 155.145 49.7447C155.097 49.314 154.884 48.9188 154.55 48.6419C154.217 48.3649 153.789 48.2278 153.357 48.2593H153.381Z" fill="white"/>
<path d="M141.898 56.4539L117.419 59.1776C117.309 59.1885 117.203 59.221 117.107 59.2733C117.01 59.3256 116.925 59.3967 116.856 59.4823C116.787 59.5679 116.736 59.6664 116.706 59.772C116.676 59.8775 116.667 59.9881 116.68 60.0972C116.703 60.3178 116.813 60.5201 116.985 60.6597C117.158 60.7994 117.378 60.865 117.599 60.8422L142.084 58.1184C142.298 58.086 142.491 57.9719 142.623 57.8C142.755 57.6282 142.816 57.4119 142.791 57.1966C142.767 56.9812 142.661 56.7836 142.494 56.6451C142.327 56.5067 142.114 56.4381 141.898 56.4539Z" fill="white"/>
<path opacity="0.3" d="M160.195 75.3223L96.03 82.4576C95.8656 82.4761 95.7153 82.5592 95.6122 82.6885C95.509 82.8179 95.4615 82.9829 95.48 83.1473C95.4985 83.3117 95.5816 83.462 95.7109 83.5651C95.8403 83.6682 96.0053 83.7158 96.1697 83.6973L160.318 76.5619C160.482 76.5434 160.632 76.4604 160.736 76.331C160.839 76.2017 160.886 76.0367 160.868 75.8723C160.849 75.7079 160.766 75.5576 160.637 75.4544C160.507 75.3513 160.342 75.3038 160.178 75.3223H160.195Z" fill="black"/>
<path opacity="0.3" d="M160.691 79.7746L86.9162 87.9808C86.7518 87.9993 86.6015 88.0824 86.4984 88.2117C86.3952 88.3411 86.3477 88.5061 86.3662 88.6705C86.3848 88.8348 86.4678 88.9851 86.5972 89.0883C86.7265 89.1914 86.8915 89.239 87.0559 89.2205L160.83 81.0142C160.914 81.0092 160.996 80.9872 161.072 80.9496C161.147 80.9119 161.214 80.8594 161.268 80.7952C161.322 80.7311 161.363 80.6565 161.388 80.5761C161.413 80.4957 161.421 80.4112 161.412 80.3275C161.403 80.243 161.377 80.1613 161.335 80.0872C161.293 80.0132 161.237 79.9484 161.17 79.8967C161.102 79.845 161.025 79.8075 160.943 79.7866C160.86 79.7656 160.775 79.7615 160.691 79.7746Z" fill="black"/>
<path opacity="0.3" d="M141.933 86.3685L87.4109 92.4329C87.2465 92.4514 87.0962 92.5345 86.993 92.6638C86.8899 92.7932 86.8423 92.9582 86.8609 93.1226C86.8794 93.287 86.9625 93.4372 87.0918 93.5404C87.2211 93.6435 87.3861 93.6911 87.5505 93.6726L142.066 87.6081C142.15 87.6031 142.233 87.5811 142.308 87.5434C142.383 87.5058 142.45 87.4533 142.504 87.3891C142.559 87.3249 142.599 87.2504 142.624 87.17C142.649 87.0896 142.657 87.005 142.648 86.9214C142.639 86.8375 142.613 86.7563 142.572 86.6827C142.53 86.609 142.475 86.5445 142.408 86.4929C142.341 86.4413 142.265 86.4037 142.183 86.3823C142.101 86.3609 142.016 86.3562 141.933 86.3685Z" fill="black"/>
<path opacity="0.3" d="M176.464 72.9574L169.957 73.6815C169.082 73.7789 168.451 74.5675 168.548 75.4428L169.273 81.9501C169.37 82.8254 170.159 83.4561 171.034 83.3587L177.541 82.6345C178.417 82.5371 179.047 81.7485 178.95 80.8732L178.226 74.3659C178.128 73.4906 177.34 72.86 176.464 72.9574Z" stroke="#263238" stroke-linecap="round" stroke-linejoin="round"/>
<path d="M171.114 77.9586L173.256 79.9781L176.073 75.6655" stroke="#FFAD2F" stroke-width="3" stroke-linecap="round" stroke-linejoin="round"/>
<path opacity="0.3" d="M162.541 96.4141L98.3933 103.549C98.2289 103.568 98.0786 103.651 97.9754 103.78C97.8723 103.91 97.8248 104.075 97.8433 104.239C97.8618 104.403 97.9449 104.554 98.0742 104.657C98.2035 104.76 98.3686 104.808 98.5329 104.789L162.681 97.6537C162.762 97.6446 162.841 97.6195 162.913 97.5798C162.985 97.5402 163.048 97.4869 163.099 97.4228C163.15 97.3588 163.188 97.2853 163.211 97.2066C163.233 97.1279 163.24 97.0455 163.231 96.9641C163.222 96.8827 163.197 96.8039 163.157 96.7322C163.117 96.6605 163.064 96.5973 163 96.5462C162.936 96.4952 162.863 96.4572 162.784 96.4345C162.705 96.4119 162.623 96.4049 162.541 96.4141Z" fill="black"/>
<path opacity="0.3" d="M163.036 100.866L89.2614 109.072C89.18 109.082 89.1012 109.107 89.0295 109.146C88.9579 109.186 88.8947 109.239 88.8436 109.303C88.7925 109.367 88.7546 109.441 88.7319 109.52C88.7092 109.598 88.7023 109.681 88.7114 109.762C88.7206 109.843 88.7457 109.922 88.7853 109.994C88.825 110.066 88.8783 110.129 88.9424 110.18C89.0064 110.231 89.0799 110.269 89.1586 110.292C89.2373 110.314 89.3197 110.321 89.4011 110.312L163.175 102.106C163.34 102.087 163.49 102.004 163.593 101.875C163.696 101.746 163.744 101.581 163.725 101.416C163.707 101.252 163.624 101.102 163.494 100.998C163.365 100.895 163.2 100.848 163.036 100.866Z" fill="black"/>
<path opacity="0.3" d="M144.278 107.46L89.7561 113.525C89.5917 113.543 89.4414 113.626 89.3382 113.756C89.2351 113.885 89.1876 114.05 89.2061 114.214C89.2246 114.379 89.3077 114.529 89.437 114.632C89.5663 114.735 89.7314 114.783 89.8958 114.764L144.412 108.7C144.496 108.695 144.578 108.673 144.653 108.635C144.728 108.598 144.795 108.545 144.849 108.481C144.904 108.417 144.945 108.342 144.969 108.262C144.994 108.181 145.002 108.097 144.994 108.013C144.984 107.929 144.958 107.848 144.917 107.774C144.876 107.701 144.82 107.636 144.753 107.585C144.686 107.533 144.61 107.495 144.528 107.474C144.446 107.453 144.361 107.448 144.278 107.46Z" fill="black"/>
<path opacity="0.3" d="M178.812 94.0443L172.305 94.7685C171.429 94.8659 170.799 95.6544 170.896 96.5297L171.62 103.037C171.718 103.912 172.506 104.543 173.382 104.446L179.889 103.721C180.764 103.624 181.395 102.835 181.297 101.96L180.573 95.4528C180.476 94.5775 179.687 93.9469 178.812 94.0443Z" stroke="#263238" stroke-linecap="round" stroke-linejoin="round"/>
<path d="M173.465 99.0504L175.601 101.07L178.418 96.7573" stroke="#FFAD2F" stroke-width="3" stroke-linecap="round" stroke-linejoin="round"/>
<path opacity="0.3" d="M164.887 117.506L100.739 124.641C100.585 124.671 100.448 124.757 100.355 124.884C100.262 125.01 100.22 125.167 100.238 125.323C100.255 125.478 100.331 125.622 100.45 125.724C100.569 125.827 100.722 125.88 100.878 125.875L165.026 118.728C165.108 118.719 165.187 118.694 165.258 118.654C165.33 118.614 165.393 118.561 165.444 118.497C165.495 118.433 165.533 118.36 165.556 118.281C165.579 118.202 165.586 118.12 165.576 118.038C165.567 117.957 165.542 117.878 165.503 117.806C165.463 117.735 165.41 117.672 165.346 117.62C165.281 117.569 165.208 117.531 165.129 117.509C165.051 117.486 164.968 117.479 164.887 117.488V117.506Z" fill="black"/>
<path opacity="0.3" d="M165.387 121.958L91.6068 130.164C91.5253 130.172 91.4462 130.196 91.3742 130.235C91.3022 130.274 91.2388 130.327 91.1878 130.391C91.1368 130.456 91.0991 130.529 91.0771 130.608C91.0551 130.687 91.0492 130.77 91.0598 130.851C91.0685 130.932 91.0931 131.011 91.1324 131.083C91.1716 131.155 91.2246 131.218 91.2884 131.27C91.3522 131.321 91.4255 131.359 91.5041 131.382C91.5827 131.405 91.6651 131.413 91.7465 131.404L165.521 123.197C165.605 123.192 165.687 123.169 165.763 123.131C165.838 123.092 165.905 123.039 165.959 122.975C166.013 122.91 166.054 122.835 166.079 122.754C166.103 122.674 166.112 122.589 166.103 122.505C166.094 122.421 166.068 122.34 166.026 122.267C165.985 122.193 165.929 122.129 165.862 122.078C165.795 122.027 165.718 121.99 165.637 121.969C165.555 121.949 165.47 121.945 165.387 121.958Z" fill="black"/>
<path opacity="0.3" d="M146.624 128.552L92.1018 134.616C91.9374 134.635 91.7871 134.718 91.6839 134.847C91.5808 134.977 91.5333 135.142 91.5518 135.306C91.5703 135.47 91.6534 135.621 91.7827 135.724C91.912 135.827 92.0771 135.875 92.2415 135.856L146.757 129.786C146.922 129.768 147.072 129.686 147.176 129.557C147.28 129.428 147.328 129.263 147.31 129.099C147.293 128.935 147.21 128.784 147.081 128.68C146.953 128.577 146.788 128.528 146.624 128.546V128.552Z" fill="black"/>
<path opacity="0.3" d="M181.159 115.132L174.651 115.856C173.776 115.953 173.145 116.742 173.243 117.617L173.967 124.124C174.064 125 174.853 125.63 175.728 125.533L182.236 124.809C183.111 124.711 183.741 123.923 183.644 123.048L182.92 116.54C182.822 115.665 182.034 115.034 181.159 115.132Z" stroke="#263238" stroke-linecap="round" stroke-linejoin="round"/>
<path d="M175.811 120.142L177.946 122.162L180.769 117.843" stroke="#FFAD2F" stroke-width="3" stroke-linecap="round" stroke-linejoin="round"/>
<path opacity="0.3" d="M167.232 138.597L103.084 145.733C102.93 145.762 102.793 145.849 102.7 145.975C102.607 146.102 102.565 146.258 102.583 146.414C102.601 146.57 102.676 146.713 102.795 146.816C102.914 146.918 103.067 146.972 103.224 146.966L167.372 139.831C167.457 139.828 167.542 139.807 167.619 139.77C167.697 139.733 167.765 139.68 167.822 139.615C167.878 139.55 167.92 139.474 167.945 139.392C167.97 139.31 167.978 139.224 167.969 139.139C167.959 139.053 167.932 138.971 167.889 138.897C167.846 138.822 167.788 138.758 167.719 138.707C167.65 138.656 167.571 138.62 167.487 138.601C167.403 138.582 167.316 138.581 167.232 138.597Z" fill="black"/>
<path opacity="0.3" d="M167.733 143.05L93.9525 151.256C93.871 151.264 93.7919 151.288 93.7199 151.327C93.6479 151.366 93.5845 151.419 93.5335 151.483C93.4825 151.547 93.4448 151.621 93.4228 151.7C93.4008 151.779 93.3949 151.861 93.4055 151.943C93.4142 152.024 93.4388 152.103 93.4781 152.175C93.5173 152.247 93.5703 152.31 93.6341 152.362C93.6979 152.413 93.7712 152.451 93.8498 152.474C93.9284 152.497 94.0108 152.504 94.0922 152.496L167.867 144.289C168.031 144.27 168.182 144.187 168.286 144.057C168.389 143.927 168.437 143.762 168.419 143.597C168.4 143.433 168.318 143.284 168.189 143.182C168.06 143.079 167.896 143.032 167.733 143.05Z" fill="black"/>
<path opacity="0.3" d="M148.992 149.643L94.4706 155.708C94.3891 155.716 94.31 155.74 94.238 155.779C94.166 155.818 94.1026 155.871 94.0516 155.935C94.0005 155.999 93.9629 156.073 93.9409 156.152C93.9189 156.231 93.913 156.313 93.9235 156.395C93.9322 156.476 93.9569 156.555 93.9961 156.627C94.0354 156.699 94.0884 156.762 94.1522 156.814C94.216 156.865 94.2893 156.903 94.3679 156.926C94.4465 156.949 94.5289 156.956 94.6103 156.948L149.126 150.883C149.208 150.874 149.287 150.85 149.358 150.81C149.43 150.771 149.494 150.718 149.545 150.654C149.596 150.591 149.635 150.517 149.658 150.439C149.681 150.36 149.688 150.278 149.679 150.196C149.671 150.115 149.647 150.035 149.608 149.963C149.569 149.891 149.516 149.827 149.452 149.776C149.388 149.724 149.314 149.686 149.235 149.663C149.157 149.64 149.074 149.634 148.992 149.643Z" fill="black"/>
<path opacity="0.3" d="M183.506 136.224L176.999 136.949C176.124 137.046 175.493 137.835 175.59 138.71L176.315 145.217C176.412 146.093 177.201 146.723 178.076 146.626L184.583 145.902C185.459 145.804 186.089 145.016 185.992 144.14L185.268 137.633C185.17 136.758 184.382 136.127 183.506 136.224Z" stroke="#263238" stroke-linecap="round" stroke-linejoin="round"/>
<path d="M178.156 141.228L180.292 143.248L183.115 138.935" stroke="#FFAD2F" stroke-width="3" stroke-linecap="round" stroke-linejoin="round"/>
<path opacity="0.3" d="M169.583 159.683L105.435 166.819C105.354 166.827 105.275 166.852 105.203 166.891C105.131 166.931 105.068 166.984 105.017 167.047C104.965 167.111 104.927 167.185 104.904 167.263C104.881 167.342 104.874 167.424 104.883 167.505C104.891 167.587 104.916 167.666 104.955 167.737C104.995 167.809 105.048 167.873 105.111 167.924C105.175 167.975 105.248 168.014 105.327 168.037C105.406 168.06 105.488 168.067 105.569 168.058L169.717 160.923C169.799 160.914 169.878 160.89 169.95 160.85C170.021 160.811 170.085 160.758 170.136 160.694C170.188 160.63 170.226 160.557 170.249 160.479C170.272 160.4 170.279 160.318 170.27 160.236C170.251 160.072 170.168 159.923 170.04 159.819C169.912 159.716 169.748 159.667 169.583 159.683Z" fill="black"/>
<path opacity="0.3" d="M170.078 164.124L96.2977 172.33C96.2119 172.333 96.1277 172.354 96.0503 172.391C95.9728 172.428 95.9039 172.481 95.8479 172.546C95.7918 172.611 95.7498 172.687 95.7245 172.769C95.6992 172.851 95.6911 172.937 95.7007 173.022C95.7104 173.108 95.7376 173.19 95.7806 173.264C95.8236 173.339 95.8815 173.403 95.9507 173.454C96.0199 173.505 96.0988 173.541 96.1826 173.56C96.2663 173.579 96.3531 173.58 96.4374 173.564L170.212 165.358C170.298 165.356 170.383 165.336 170.461 165.299C170.539 165.263 170.608 165.21 170.665 165.145C170.722 165.081 170.765 165.005 170.791 164.922C170.817 164.84 170.825 164.754 170.816 164.668C170.807 164.582 170.78 164.499 170.737 164.425C170.694 164.35 170.636 164.285 170.566 164.234C170.497 164.183 170.418 164.146 170.334 164.128C170.25 164.109 170.162 164.107 170.078 164.124Z" fill="black"/>
<path opacity="0.3" d="M151.32 170.735L96.7985 176.8C96.6342 176.818 96.4839 176.901 96.3807 177.031C96.2776 177.16 96.23 177.325 96.2486 177.489C96.2671 177.654 96.3501 177.804 96.4795 177.907C96.6088 178.01 96.7738 178.058 96.9382 178.039L151.46 171.975C151.624 171.955 151.773 171.87 151.876 171.741C151.978 171.611 152.025 171.447 152.007 171.282C151.998 171.201 151.974 171.123 151.934 171.051C151.895 170.979 151.842 170.916 151.778 170.865C151.714 170.814 151.641 170.777 151.562 170.754C151.484 170.732 151.401 170.726 151.32 170.735Z" fill="black"/>
<path opacity="0.3" d="M185.854 157.317L179.347 158.041C178.471 158.139 177.841 158.927 177.938 159.803L178.662 166.31C178.76 167.185 179.548 167.816 180.424 167.719L186.931 166.994C187.806 166.897 188.437 166.108 188.339 165.233L187.615 158.726C187.518 157.85 186.729 157.22 185.854 157.317Z" stroke="#263238" stroke-linecap="round" stroke-linejoin="round"/>
<path d="M180.501 162.319L182.637 164.339L185.46 160.026" stroke="#FFAD2F" stroke-width="3" stroke-linecap="round" stroke-linejoin="round"/>
<path opacity="0.3" d="M171.37 175.764L107.222 182.911C107.057 182.929 106.907 183.012 106.804 183.142C106.701 183.271 106.653 183.436 106.672 183.6C106.69 183.765 106.773 183.915 106.903 184.018C107.032 184.121 107.197 184.169 107.362 184.15L171.51 177.015C171.591 177.007 171.67 176.983 171.742 176.944C171.814 176.905 171.878 176.852 171.929 176.788C171.98 176.724 172.017 176.65 172.039 176.571C172.061 176.492 172.067 176.41 172.057 176.328C172.049 176.246 172.026 176.166 171.987 176.092C171.949 176.019 171.896 175.954 171.832 175.902C171.768 175.849 171.694 175.81 171.615 175.786C171.535 175.763 171.452 175.755 171.37 175.764Z" fill="black"/>
<path opacity="0.3" d="M171.865 180.234L98.0907 188.44C98.0045 188.442 97.9198 188.462 97.8417 188.499C97.7636 188.535 97.694 188.587 97.6372 188.652C97.5804 188.717 97.5377 188.793 97.5118 188.875C97.4858 188.957 97.4772 189.044 97.4865 189.13C97.4958 189.215 97.5228 189.298 97.5658 189.373C97.6087 189.448 97.6667 189.513 97.7361 189.564C97.8055 189.615 97.8847 189.651 97.9688 189.67C98.0529 189.689 98.14 189.69 98.2246 189.674L172.005 181.468C172.159 181.438 172.296 181.351 172.389 181.225C172.481 181.099 172.523 180.942 172.506 180.786C172.488 180.63 172.412 180.487 172.293 180.385C172.175 180.282 172.022 180.228 171.865 180.234Z" fill="black"/>
<path opacity="0.3" d="M153.101 186.822L98.5854 192.886C98.5039 192.895 98.425 192.92 98.3532 192.959C98.2813 192.998 98.2178 193.051 98.1665 193.115C98.1151 193.179 98.0768 193.252 98.0539 193.331C98.0309 193.409 98.0236 193.492 98.0325 193.573C98.0515 193.738 98.135 193.889 98.2648 193.992C98.3945 194.096 98.56 194.144 98.7251 194.126L153.241 188.061C153.322 188.052 153.401 188.027 153.473 187.988C153.545 187.948 153.608 187.895 153.659 187.831C153.71 187.766 153.748 187.693 153.771 187.614C153.793 187.536 153.8 187.453 153.791 187.372C153.782 187.29 153.757 187.212 153.717 187.14C153.677 187.068 153.624 187.005 153.56 186.954C153.496 186.903 153.423 186.865 153.344 186.842C153.265 186.82 153.183 186.813 153.101 186.822Z" fill="black"/>
<path opacity="0.3" d="M187.646 173.403L181.139 174.127C180.263 174.225 179.633 175.013 179.73 175.889L180.454 182.396C180.552 183.271 181.34 183.902 182.216 183.804L188.723 183.08C189.598 182.983 190.229 182.194 190.131 181.319L189.407 174.812C189.31 173.936 188.521 173.306 187.646 173.403Z" stroke="#263238" stroke-linecap="round" stroke-linejoin="round"/>
<path d="M182.289 178.412L184.425 180.431L187.247 176.119" stroke="#FFAD2F" stroke-width="3" stroke-linecap="round" stroke-linejoin="round"/>
<path d="M118.036 134.599C118.092 133.93 117.926 133.261 117.564 132.696L116.849 131.427L115.428 132.23L116.203 133.592C116.587 134.273 116.43 134.692 115.952 134.96C115.475 135.228 115.033 135.158 114.649 134.477L112.99 131.532L111.209 131.881L113.106 135.228C113.973 136.758 115.231 137.195 116.703 136.392C116.937 136.257 117.154 136.095 117.349 135.909C117.266 135.717 117.252 135.502 117.308 135.301C117.364 135.1 117.487 134.924 117.658 134.803C117.772 134.715 117.899 134.646 118.036 134.599Z" fill="#FFAD2F"/>
<path d="M110.295 130.269L110.632 130.851H112.594L111.738 129.338C111.354 128.657 111.505 128.227 111.983 127.959C112.46 127.691 112.908 127.773 113.292 128.459L113.874 129.478L115.288 128.675L114.765 127.749C113.897 126.225 112.64 125.782 111.168 126.62C110.83 126.803 110.53 127.047 110.283 127.342C110.618 127.449 110.968 127.499 111.319 127.487L109.922 128.011C109.82 128.392 109.8 128.791 109.865 129.181C109.929 129.57 110.076 129.941 110.295 130.269Z" fill="#FFAD2F"/>
<path d="M121.173 124.065C121.359 123.972 121.554 123.896 121.755 123.838C122.505 123.501 122.674 122.418 122.61 121.656L121.836 120.695L119.752 121.859L121.056 124.152C121.09 124.117 121.129 124.088 121.173 124.065Z" fill="#FFAD2F"/>
<path d="M130.048 128.622L131.462 127.819L126.056 118.286L124.711 119.042C125.142 119.147 125.45 119.351 125.462 119.665C125.043 119.723 124.531 119.665 124.077 119.746L126.801 126.806L123.355 122.511C123.365 122.606 123.35 122.702 123.314 122.79C123.277 122.879 123.219 122.957 123.146 123.017C122.989 123.128 122.762 123.128 122.639 123.273C122.517 123.419 122.535 123.593 122.43 123.722C122.325 123.85 122.162 123.884 122.034 123.978C121.906 124.071 121.766 124.309 121.621 124.466C121.551 124.54 121.462 124.595 121.365 124.624L125.194 131.375L126.498 130.63L122.674 123.89L127.586 130.013L129.006 129.21L126.137 121.801L130.048 128.622Z" fill="#FFAD2F"/>
<path d="M133.628 120.323C133.731 120.375 133.823 120.447 133.898 120.535C133.973 120.623 134.029 120.725 134.064 120.835C134.186 120.116 134.03 119.377 133.628 118.769L132.923 117.524C132.056 115.999 130.851 115.585 129.35 116.435L127.144 117.687L132.557 127.225L133.959 126.428C133.505 126.143 132.999 125.899 132.568 125.59C132.366 125.461 132.2 125.283 132.085 125.072C132.031 124.966 132.008 124.846 132.021 124.727C132.033 124.608 132.08 124.496 132.155 124.403C132.254 124.32 132.374 124.266 132.502 124.249C132.629 124.231 132.759 124.25 132.877 124.304L132.021 122.791L132.731 122.389C133.122 122.178 133.461 121.884 133.726 121.528C133.43 121.056 132.912 120.055 133.628 120.323ZM131.957 121.056L131.247 121.458L129.414 118.228L130.124 117.826C130.601 117.558 130.985 117.628 131.369 118.309L132.184 119.741C132.568 120.393 132.434 120.759 131.957 121.056Z" fill="#FFAD2F"/>
<path d="M141.653 122.063L140.885 120.701L138.417 122.098L134.809 115.736L134.646 115.865C134.541 115.962 134.413 116.032 134.274 116.068C134.204 116.084 134.13 116.074 134.067 116.04C134.004 116.005 133.955 115.949 133.93 115.882C133.91 115.792 133.91 115.699 133.93 115.608C133.931 115.067 133.76 114.539 133.441 114.101L132.277 114.776L137.684 124.309L141.653 122.063Z" fill="#FFAD2F"/>
<path d="M140.978 118.728C141.141 118.303 141.647 118.146 141.933 117.762C141.958 117.723 141.981 117.682 142.002 117.64L141.42 116.662L142.893 115.83C142.866 115.737 142.818 115.651 142.753 115.58C142.542 115.476 142.316 115.406 142.084 115.37C142.048 115.298 142.03 115.218 142.031 115.137C142.032 115.056 142.053 114.977 142.091 114.906C142.129 114.835 142.184 114.773 142.251 114.728C142.317 114.682 142.394 114.653 142.474 114.643C142.573 114.643 142.689 114.643 142.765 114.596C142.818 114.533 142.845 114.452 142.841 114.369L142.707 114.136L140.646 115.3L139.145 112.646L141.729 111.174L140.955 109.812L136.881 112.14L140.885 119.2C140.892 119.039 140.923 118.88 140.978 118.728Z" fill="#FFAD2F"/>
<path d="M146.396 119.374L145.622 118.012L143.032 119.479L142.258 118.146L141.304 119.042L140.972 119.362L142.311 121.72L146.396 119.374Z" fill="#FFAD2F"/>
<path d="M144.47 108.299C144.47 108.503 144.324 108.73 144.127 108.747C144.026 108.746 143.926 108.73 143.83 108.7C143.65 108.704 143.47 108.686 143.294 108.648C143.256 108.632 143.221 108.611 143.19 108.584L141.479 109.556L142.253 110.924L143.818 110.033L148.474 118.181L149.97 117.331L145.314 109.183L146.885 108.293L146.111 106.931L144.505 107.839C144.476 107.99 144.487 108.148 144.47 108.299Z" fill="#FFAD2F"/>
<path d="M151.006 114.072L152.17 116.127L153.741 115.236C153.779 115.133 153.825 115.034 153.881 114.939C154.227 114.434 154.693 114.022 155.237 113.741L155.959 113.292L155.482 112.443L152.892 113.915L151.309 111.122L153.369 109.958L152.595 108.596L150.535 109.76L149.033 107.088L151.623 105.622L150.849 104.26L146.775 106.588L149.714 111.773C150.424 111.395 150.779 112.757 151.006 114.072Z" fill="#FFAD2F"/>
<path d="M120.864 132.906C121.108 132.947 121.254 133.191 121.446 133.354C121.516 133.418 121.597 133.47 121.685 133.505C121.796 133.461 121.905 133.41 122.011 133.354C123.477 132.522 123.786 131.195 122.924 129.664L122.837 129.513L120.823 129.46L121.481 130.624C121.865 131.305 121.714 131.736 121.236 132.004C120.759 132.271 120.311 132.184 119.927 131.503L117.017 126.352C116.627 125.672 116.784 125.247 117.261 124.973C117.739 124.7 118.181 124.793 118.571 125.474L120.544 128.966C121.15 128.816 121.771 128.737 122.395 128.733L120.119 124.723C119.258 123.198 117.96 122.785 116.487 123.617C115.015 124.449 114.706 125.782 115.574 127.307L118.385 132.266C118.562 132.648 118.828 132.983 119.16 133.243C119.491 133.503 119.88 133.68 120.294 133.761C120.29 133.726 120.29 133.691 120.294 133.657C120.224 133.278 120.503 132.836 120.864 132.906Z" fill="#FFAD2F"/>
<path d="M140.961 105.534L145.529 102.944C144.22 103.305 143.067 104.399 141.717 104.248C141.473 104.184 141.216 104.184 140.972 104.248C140.82 104.346 140.71 104.499 140.664 104.675C140.619 104.85 140.642 105.037 140.728 105.197C140.787 105.321 140.865 105.435 140.961 105.534Z" fill="#FFAD2F"/>
<path d="M129.501 112.035C129.491 111.935 129.511 111.833 129.559 111.744C129.672 111.783 129.79 111.803 129.909 111.802L131.486 110.912C131.733 110.633 132.014 110.386 132.324 110.179C132.623 110.019 132.939 109.894 133.267 109.806L133.616 109.701L136.526 108.06C136.557 108.001 136.598 107.947 136.648 107.903C136.693 107.873 136.742 107.85 136.794 107.833L133.791 106.925L132.982 107.379L132.894 108.019L129.431 109.87C129.088 110.084 128.707 110.229 128.308 110.295C128.159 110.313 128.009 110.313 127.86 110.295L122.925 113.094C122.964 113.328 123.03 113.557 123.122 113.775C122.833 113.721 122.558 113.609 122.313 113.444L121.301 114.026C122.022 114.503 122.733 114.992 123.425 115.51L129.501 112.035Z" fill="#FFAD2F"/>
<path d="M150.628 100.057L148.241 98.7188L147.112 99.359C147.778 100.043 148.637 100.506 149.574 100.686L150.628 100.057Z" fill="#FFAD2F"/>
<path d="M163.461 114.148L154.451 98.265C154.101 97.6508 153.522 97.2002 152.84 97.0116C152.159 96.8229 151.43 96.9116 150.814 97.2582L149.731 97.8751L150.144 98.2767C150.575 98.7074 151.017 99.1439 151.419 99.6036L151.966 99.2952C152.042 99.2528 152.131 99.2419 152.215 99.2648C152.299 99.2876 152.37 99.3424 152.414 99.4174L161.429 115.306C161.471 115.383 161.481 115.472 161.457 115.556C161.433 115.64 161.377 115.711 161.301 115.754L149.039 122.738C150.098 122.802 151.169 122.651 152.228 122.773C152.61 122.821 152.988 122.889 153.363 122.977L162.454 117.82C162.762 117.647 163.034 117.414 163.252 117.135C163.47 116.855 163.63 116.536 163.724 116.194C163.818 115.853 163.843 115.496 163.797 115.145C163.752 114.793 163.638 114.455 163.461 114.148Z" fill="#FFAD2F"/>
<path d="M108.252 134.361L104.015 126.876C103.993 126.838 103.979 126.797 103.973 126.753C103.968 126.71 103.971 126.666 103.982 126.624C103.993 126.582 104.013 126.542 104.04 126.508C104.066 126.473 104.1 126.444 104.137 126.422L116.359 119.485C116.319 119.392 116.266 119.299 116.231 119.205C116.404 119.198 116.577 119.218 116.744 119.264L121.685 116.464C121.522 116.412 121.365 116.348 121.208 116.29L118.88 115.364L117.017 116.423L119.042 117.663C118.338 117.232 116.901 117.174 115.661 117.192L103.014 124.391C102.399 124.74 101.947 125.32 101.758 126.002C101.57 126.684 101.659 127.413 102.007 128.029L105.686 134.512C105.854 134.465 106.029 134.425 106.198 134.396C106.664 134.329 107.136 134.305 107.606 134.326C107.822 134.324 108.038 134.336 108.252 134.361Z" fill="#FFAD2F"/>
<path d="M123.349 137.282C123.556 137.468 123.792 137.62 124.048 137.731C124.309 137.847 124.659 138.126 124.455 138.313C123.512 138.743 122.348 138.423 121.423 138.895C120.916 139.139 120.427 139.622 119.886 139.477C120.541 139.874 121.13 140.371 121.632 140.949L144.743 127.842C144.743 127.749 144.773 127.656 144.79 127.557C144.791 127.374 144.833 127.193 144.914 127.029C144.995 126.865 145.112 126.721 145.257 126.609C145.401 126.496 145.57 126.419 145.749 126.381C145.929 126.344 146.114 126.348 146.292 126.393C146.591 126.38 146.891 126.411 147.182 126.486L150.063 124.851C149.668 124.17 149.199 123.533 148.666 122.954L123.349 137.282Z" fill="#FFAD2F"/>
<path d="M119.607 141.129C119.049 140.949 118.536 140.653 118.099 140.262L113.49 142.881C113.453 142.903 113.411 142.917 113.368 142.923C113.326 142.928 113.282 142.925 113.24 142.914C113.199 142.903 113.16 142.883 113.125 142.856C113.091 142.83 113.063 142.797 113.042 142.759L108.968 135.618C108.577 135.483 108.162 135.435 107.751 135.478C107.28 135.571 106.867 136.118 107.123 136.52C107.363 136.526 107.598 136.596 107.803 136.723C108.007 136.85 108.174 137.029 108.287 137.242C108.036 137.441 107.76 137.608 107.466 137.736L110.958 143.911C111.132 144.223 111.366 144.497 111.647 144.717C111.928 144.937 112.25 145.099 112.594 145.193C112.938 145.287 113.298 145.311 113.652 145.264C114.006 145.216 114.346 145.099 114.654 144.918L120.695 141.49L120.625 141.45C120.292 141.325 119.952 141.218 119.607 141.129Z" fill="#FFAD2F"/>
<g opacity="0.2">
<path d="M118.036 134.599C118.092 133.93 117.926 133.261 117.564 132.696L116.849 131.427L115.428 132.23L116.203 133.592C116.587 134.273 116.43 134.692 115.952 134.96C115.475 135.228 115.033 135.158 114.649 134.477L112.99 131.532L111.209 131.881L113.106 135.228C113.973 136.758 115.231 137.195 116.703 136.392C116.937 136.257 117.154 136.095 117.349 135.909C117.266 135.717 117.252 135.502 117.308 135.301C117.364 135.1 117.487 134.924 117.658 134.803C117.772 134.715 117.899 134.646 118.036 134.599Z" fill="black"/>
<path d="M110.295 130.269L110.632 130.851H112.594L111.738 129.338C111.354 128.657 111.505 128.227 111.983 127.959C112.46 127.691 112.908 127.773 113.292 128.459L113.874 129.478L115.288 128.675L114.765 127.749C113.897 126.225 112.64 125.782 111.168 126.62C110.83 126.803 110.53 127.047 110.283 127.342C110.618 127.449 110.968 127.499 111.319 127.487L109.922 128.011C109.82 128.392 109.8 128.791 109.865 129.181C109.929 129.57 110.076 129.941 110.295 130.269Z" fill="black"/>
<path d="M121.173 124.065C121.359 123.972 121.554 123.896 121.755 123.838C122.505 123.501 122.674 122.418 122.61 121.656L121.836 120.695L119.752 121.859L121.056 124.152C121.09 124.117 121.129 124.088 121.173 124.065Z" fill="black"/>
<path d="M130.048 128.622L131.462 127.819L126.056 118.286L124.711 119.042C125.142 119.147 125.45 119.351 125.462 119.665C125.043 119.723 124.531 119.665 124.077 119.746L126.801 126.806L123.355 122.511C123.365 122.606 123.35 122.702 123.314 122.79C123.277 122.879 123.219 122.957 123.146 123.017C122.989 123.128 122.762 123.128 122.639 123.273C122.517 123.419 122.535 123.593 122.43 123.722C122.325 123.85 122.162 123.884 122.034 123.978C121.906 124.071 121.766 124.309 121.621 124.466C121.551 124.54 121.462 124.595 121.365 124.624L125.194 131.375L126.498 130.63L122.674 123.89L127.586 130.013L129.006 129.21L126.137 121.801L130.048 128.622Z" fill="black"/>
<path d="M133.628 120.323C133.731 120.375 133.823 120.447 133.898 120.535C133.973 120.623 134.029 120.725 134.064 120.835C134.186 120.116 134.03 119.377 133.628 118.769L132.923 117.524C132.056 115.999 130.851 115.585 129.35 116.435L127.144 117.687L132.557 127.225L133.959 126.428C133.505 126.143 132.999 125.899 132.568 125.59C132.366 125.461 132.2 125.283 132.085 125.072C132.031 124.966 132.008 124.846 132.021 124.727C132.033 124.608 132.08 124.496 132.155 124.403C132.254 124.32 132.374 124.266 132.502 124.249C132.629 124.231 132.759 124.25 132.877 124.304L132.021 122.791L132.731 122.389C133.122 122.178 133.461 121.884 133.726 121.528C133.43 121.056 132.912 120.055 133.628 120.323ZM131.957 121.056L131.247 121.458L129.414 118.228L130.124 117.826C130.601 117.558 130.985 117.628 131.369 118.309L132.184 119.741C132.568 120.393 132.434 120.759 131.957 121.056Z" fill="black"/>
<path d="M141.653 122.063L140.885 120.701L138.417 122.098L134.809 115.736L134.646 115.865C134.541 115.962 134.413 116.032 134.274 116.068C134.204 116.084 134.13 116.074 134.067 116.04C134.004 116.005 133.955 115.949 133.93 115.882C133.91 115.792 133.91 115.699 133.93 115.608C133.931 115.067 133.76 114.539 133.441 114.101L132.277 114.776L137.684 124.309L141.653 122.063Z" fill="black"/>
<path d="M140.978 118.728C141.141 118.303 141.647 118.146 141.933 117.762C141.958 117.723 141.981 117.682 142.002 117.64L141.42 116.662L142.893 115.83C142.866 115.737 142.818 115.651 142.753 115.58C142.542 115.476 142.316 115.406 142.084 115.37C142.048 115.298 142.03 115.218 142.031 115.137C142.032 115.056 142.053 114.977 142.091 114.906C142.129 114.835 142.184 114.773 142.251 114.728C142.317 114.682 142.394 114.653 142.474 114.643C142.573 114.643 142.689 114.643 142.765 114.596C142.818 114.533 142.845 114.452 142.841 114.369L142.707 114.136L140.646 115.3L139.145 112.646L141.729 111.174L140.955 109.812L136.881 112.14L140.885 119.2C140.892 119.039 140.923 118.88 140.978 118.728Z" fill="black"/>
<path d="M146.396 119.374L145.622 118.012L143.032 119.479L142.258 118.146L141.304 119.042L140.972 119.362L142.311 121.72L146.396 119.374Z" fill="black"/>
<path d="M144.47 108.299C144.47 108.503 144.324 108.73 144.127 108.747C144.026 108.746 143.926 108.73 143.83 108.7C143.65 108.704 143.47 108.686 143.294 108.648C143.256 108.632 143.221 108.611 143.19 108.584L141.479 109.556L142.253 110.924L143.818 110.033L148.474 118.181L149.97 117.331L145.314 109.183L146.885 108.293L146.111 106.931L144.505 107.839C144.476 107.99 144.487 108.148 144.47 108.299Z" fill="black"/>
<path d="M151.006 114.072L152.17 116.127L153.741 115.236C153.779 115.133 153.825 115.034 153.881 114.939C154.227 114.434 154.693 114.022 155.237 113.741L155.959 113.292L155.482 112.443L152.892 113.915L151.309 111.122L153.369 109.958L152.595 108.596L150.535 109.76L149.033 107.088L151.623 105.622L150.849 104.26L146.775 106.588L149.714 111.773C150.424 111.395 150.779 112.757 151.006 114.072Z" fill="black"/>
<path d="M120.864 132.906C121.108 132.947 121.254 133.191 121.446 133.354C121.516 133.418 121.597 133.47 121.685 133.505C121.796 133.461 121.905 133.41 122.011 133.354C123.477 132.522 123.786 131.195 122.924 129.664L122.837 129.513L120.823 129.46L121.481 130.624C121.865 131.305 121.714 131.736 121.236 132.004C120.759 132.271 120.311 132.184 119.927 131.503L117.017 126.352C116.627 125.672 116.784 125.247 117.261 124.973C117.739 124.7 118.181 124.793 118.571 125.474L120.544 128.966C121.15 128.816 121.771 128.737 122.395 128.733L120.119 124.723C119.258 123.198 117.96 122.785 116.487 123.617C115.015 124.449 114.706 125.782 115.574 127.307L118.385 132.266C118.562 132.648 118.828 132.983 119.16 133.243C119.491 133.503 119.88 133.68 120.294 133.761C120.29 133.726 120.29 133.691 120.294 133.657C120.224 133.278 120.503 132.836 120.864 132.906Z" fill="black"/>
<path d="M140.961 105.534L145.529 102.944C144.22 103.305 143.067 104.399 141.717 104.248C141.473 104.184 141.216 104.184 140.972 104.248C140.82 104.346 140.71 104.499 140.664 104.675C140.619 104.85 140.642 105.037 140.728 105.197C140.787 105.321 140.865 105.435 140.961 105.534Z" fill="black"/>
<path d="M129.501 112.035C129.491 111.935 129.511 111.833 129.559 111.744C129.672 111.783 129.79 111.803 129.909 111.802L131.486 110.912C131.733 110.633 132.014 110.386 132.324 110.179C132.623 110.019 132.939 109.894 133.267 109.806L133.616 109.701L136.526 108.06C136.557 108.001 136.598 107.947 136.648 107.903C136.693 107.873 136.742 107.85 136.794 107.833L133.791 106.925L132.982 107.379L132.894 108.019L129.431 109.87C129.088 110.084 128.707 110.229 128.308 110.295C128.159 110.313 128.009 110.313 127.86 110.295L122.925 113.094C122.964 113.328 123.03 113.557 123.122 113.775C122.833 113.721 122.558 113.609 122.313 113.444L121.301 114.026C122.022 114.503 122.733 114.992 123.425 115.51L129.501 112.035Z" fill="black"/>
<path d="M150.628 100.057L148.241 98.7188L147.112 99.359C147.778 100.043 148.637 100.506 149.574 100.686L150.628 100.057Z" fill="black"/>
<path d="M163.461 114.148L154.451 98.265C154.101 97.6508 153.522 97.2002 152.84 97.0116C152.159 96.8229 151.43 96.9116 150.814 97.2582L149.731 97.8751L150.144 98.2767C150.575 98.7074 151.017 99.1439 151.419 99.6036L151.966 99.2952C152.042 99.2528 152.131 99.2419 152.215 99.2648C152.299 99.2876 152.37 99.3424 152.414 99.4174L161.429 115.306C161.471 115.383 161.481 115.472 161.457 115.556C161.433 115.64 161.377 115.711 161.301 115.754L149.039 122.738C150.098 122.802 151.169 122.651 152.228 122.773C152.61 122.821 152.988 122.889 153.363 122.977L162.454 117.82C162.762 117.647 163.034 117.414 163.252 117.135C163.47 116.855 163.63 116.536 163.724 116.194C163.818 115.853 163.843 115.496 163.797 115.145C163.752 114.793 163.638 114.455 163.461 114.148Z" fill="black"/>
<path d="M108.252 134.361L104.015 126.876C103.993 126.838 103.979 126.797 103.973 126.753C103.968 126.71 103.971 126.666 103.982 126.624C103.993 126.582 104.013 126.542 104.04 126.508C104.066 126.473 104.1 126.444 104.137 126.422L116.359 119.485C116.319 119.392 116.266 119.299 116.231 119.205C116.404 119.198 116.577 119.218 116.744 119.264L121.685 116.464C121.522 116.412 121.365 116.348 121.208 116.29L118.88 115.364L117.017 116.423L119.042 117.663C118.338 117.232 116.901 117.174 115.661 117.192L103.014 124.391C102.399 124.74 101.947 125.32 101.758 126.002C101.57 126.684 101.659 127.413 102.007 128.029L105.686 134.512C105.854 134.465 106.029 134.425 106.198 134.396C106.664 134.329 107.136 134.305 107.606 134.326C107.822 134.324 108.038 134.336 108.252 134.361Z" fill="black"/>
<path d="M123.349 137.282C123.556 137.468 123.792 137.62 124.048 137.731C124.309 137.847 124.659 138.126 124.455 138.313C123.512 138.743 122.348 138.423 121.423 138.895C120.916 139.139 120.427 139.622 119.886 139.477C120.541 139.874 121.13 140.371 121.632 140.949L144.743 127.842C144.743 127.749 144.773 127.656 144.79 127.557C144.791 127.374 144.833 127.193 144.914 127.029C144.995 126.865 145.112 126.721 145.257 126.609C145.401 126.496 145.57 126.419 145.749 126.381C145.929 126.344 146.114 126.348 146.292 126.393C146.591 126.38 146.891 126.411 147.182 126.486L150.063 124.851C149.668 124.17 149.199 123.533 148.666 122.954L123.349 137.282Z" fill="black"/>
<path d="M119.607 141.129C119.049 140.949 118.536 140.653 118.099 140.262L113.49 142.881C113.453 142.903 113.411 142.917 113.368 142.923C113.326 142.928 113.282 142.925 113.24 142.914C113.199 142.903 113.16 142.883 113.125 142.856C113.091 142.83 113.063 142.797 113.042 142.759L108.968 135.618C108.577 135.483 108.162 135.435 107.751 135.478C107.28 135.571 106.867 136.118 107.123 136.52C107.363 136.526 107.598 136.596 107.803 136.723C108.007 136.85 108.174 137.029 108.287 137.242C108.036 137.441 107.76 137.608 107.466 137.736L110.958 143.911C111.132 144.223 111.366 144.497 111.647 144.717C111.928 144.937 112.25 145.099 112.594 145.193C112.938 145.287 113.298 145.311 113.652 145.264C114.006 145.216 114.346 145.099 114.654 144.918L120.695 141.49L120.625 141.45C120.292 141.325 119.952 141.218 119.607 141.129Z" fill="black"/>
</g>
<path d="M191.216 210.434C185.289 209.426 179.195 210.457 173.929 213.357C168.662 216.257 164.534 220.856 162.217 226.404C159.9 231.952 159.531 238.121 161.17 243.906C162.809 249.69 166.359 254.749 171.242 258.257" stroke="#263238" stroke-linecap="round" stroke-linejoin="round"/>
<path d="M202.303 215.072C199.836 213.29 197.079 211.948 194.155 211.103" stroke="#263238" stroke-linecap="round" stroke-linejoin="round"/>
<path d="M199.626 259.909C203.213 257.923 206.292 255.135 208.622 251.761C210.952 248.387 212.47 244.52 213.058 240.462C213.645 236.405 213.285 232.266 212.007 228.37C210.729 224.474 208.567 220.927 205.69 218.005" stroke="#263238" stroke-linecap="round" stroke-linejoin="round"/>
<path d="M200.912 268.302L202.496 269.699L200.028 261.242" stroke="#263238" stroke-linecap="round" stroke-linejoin="round"/>
<path d="M182.289 262.866C186.202 263.538 190.215 263.321 194.033 262.232L199.044 266.655" stroke="#263238" stroke-linecap="round" stroke-linejoin="round"/>
<path d="M176.189 261.062C177.182 261.49 178.201 261.857 179.239 262.162" stroke="#263238" stroke-linecap="round" stroke-linejoin="round"/>
<path d="M188.853 223.715C192.15 224.278 195.116 226.055 197.168 228.696C199.22 231.337 200.209 234.65 199.941 237.984C199.672 241.317 198.166 244.43 195.718 246.708C193.27 248.987 190.057 250.266 186.713 250.295C183.369 250.324 180.135 249.1 177.648 246.864C175.161 244.628 173.601 241.542 173.276 238.213C172.95 234.885 173.882 231.555 175.888 228.879C177.894 226.203 180.83 224.376 184.116 223.756" stroke="#263238" stroke-linecap="round" stroke-linejoin="round"/>
<path d="M184.116 251.529C180.239 250.868 176.784 248.695 174.509 245.488C172.235 242.28 171.328 238.3 171.987 234.424" stroke="#263238" stroke-linecap="round" stroke-linejoin="round"/>
<path d="M200.551 241.949C199.639 244.473 198.058 246.703 195.979 248.4C193.899 250.097 191.399 251.199 188.743 251.587" stroke="#263238" stroke-linecap="round" stroke-linejoin="round"/>
<path d="M173.128 230.722C174.631 227.455 177.269 224.845 180.553 223.378C183.837 221.911 187.541 221.688 190.977 222.749C194.413 223.811 197.347 226.085 199.231 229.148C201.116 232.211 201.823 235.854 201.221 239.4" stroke="#263238" stroke-linecap="round" stroke-linejoin="round"/>
<path d="M195.506 231.566L195.675 231.386" stroke="#263238" stroke-width="2" stroke-linecap="round" stroke-linejoin="round"/>
<path d="M193.131 234.127L194.312 232.853" stroke="#263238" stroke-width="2" stroke-linecap="round" stroke-linejoin="round"/>
<path d="M178.633 236.007L184.343 243.596L192.095 235.244" stroke="#263238" stroke-width="2" stroke-linecap="round" stroke-linejoin="round"/>
</svg>
