<svg width="14" height="17" viewBox="0 0 14 17" fill="none" xmlns="http://www.w3.org/2000/svg">
<path d="M3.66602 2.5V11.5C3.66602 11.8978 3.82405 12.2794 4.10536 12.5607C4.38666 12.842 4.76819 13 5.16602 13H11.166C11.5638 13 11.9454 12.842 12.2267 12.5607C12.508 12.2794 12.666 11.8978 12.666 11.5V4.9315C12.666 4.73167 12.626 4.53386 12.5485 4.34968C12.471 4.16551 12.3574 3.99868 12.2145 3.859L9.72827 1.4275C9.44804 1.15349 9.07169 1.00005 8.67977 1H5.16602C4.76819 1 4.38666 1.15804 4.10536 1.43934C3.82405 1.72064 3.66602 2.10218 3.66602 2.5V2.5Z" stroke="#fff" stroke-linecap="round" stroke-linejoin="round"/>
<path d="M9.66602 13V14.5C9.66602 14.8978 9.50798 15.2794 9.22668 15.5607C8.94537 15.842 8.56384 16 8.16602 16H2.16602C1.76819 16 1.38666 15.842 1.10536 15.5607C0.824051 15.2794 0.666016 14.8978 0.666016 14.5V6.25C0.666016 5.85218 0.824051 5.47064 1.10536 5.18934C1.38666 4.90804 1.76819 4.75 2.16602 4.75H3.66602" stroke="#fff" stroke-linecap="round" stroke-linejoin="round"/>
</svg>
