<svg width="16" height="16" viewBox="0 0 16 16" fill="none" xmlns="http://www.w3.org/2000/svg">
<path d="M11.3957 3.22918L13.1606 4.99335L11.3957 3.22918ZM12.5307 1.67501L7.75815 6.44751C7.51156 6.69376 7.34338 7.0075 7.27482 7.34918L6.83398 9.55584L9.04065 9.11418C9.38232 9.04585 9.69565 8.87834 9.94232 8.63168L14.7148 3.85918C14.8582 3.71576 14.972 3.54551 15.0496 3.35813C15.1272 3.17075 15.1672 2.96991 15.1672 2.7671C15.1672 2.56428 15.1272 2.36344 15.0496 2.17606C14.972 1.98868 14.8582 1.81843 14.7148 1.67501C14.5714 1.5316 14.4011 1.41783 14.2138 1.34022C14.0264 1.2626 13.8256 1.22266 13.6227 1.22266C13.4199 1.22266 13.2191 1.2626 13.0317 1.34022C12.8443 1.41783 12.6741 1.5316 12.5307 1.67501V1.67501Z" stroke="black" stroke-linecap="round" stroke-linejoin="round"/>
<path d="M13.5 11.223V13.723C13.5 14.165 13.3244 14.5889 13.0118 14.9015C12.6993 15.2141 12.2754 15.3896 11.8333 15.3896H2.66667C2.22464 15.3896 1.80072 15.2141 1.48816 14.9015C1.17559 14.5889 1 14.165 1 13.723V4.55632C1 4.11429 1.17559 3.69036 1.48816 3.3778C1.80072 3.06524 2.22464 2.88965 2.66667 2.88965H5.16667" stroke="black" stroke-linecap="round" stroke-linejoin="round"/>
</svg>
