<svg width="17" height="16" viewBox="0 0 17 16" fill="none" xmlns="http://www.w3.org/2000/svg">
<path d="M16.0024 7.83573C16.0832 12.2584 12.5659 15.921 8.16185 15.9989C3.7457 16.0774 0.0840881 12.5657 0.00144275 8.17285C-0.0816695 3.74736 3.43659 0.0768787 7.83361 0.00170411C12.2661 -0.0744043 15.9221 3.43219 16.0024 7.8362V7.83573ZM8.00077 10.1124C8.26271 10.1124 8.52512 10.1101 8.78706 10.1134C8.94022 10.1153 9.00698 10.0433 9.01586 9.893C9.03547 9.56195 9.06208 9.2309 9.08636 8.90032C9.16294 7.87262 9.24045 6.84539 9.31655 5.81816C9.36745 5.13319 9.43188 4.44868 9.46317 3.76277C9.49632 3.0353 8.9743 2.40122 8.27205 2.27328C7.55906 2.14348 6.86147 2.5483 6.61821 3.22907C6.51735 3.51203 6.5379 3.79919 6.55984 4.09148C6.70599 6.02454 6.847 7.9576 6.98661 9.89113C6.99828 10.0541 7.07392 10.1167 7.23128 10.1139C7.48762 10.1092 7.74396 10.1124 7.99983 10.1124H8.00077ZM8.0045 11.3479C7.33447 11.3456 6.7891 11.8863 6.7891 12.5517C6.7891 13.2091 7.32793 13.7544 7.98442 13.7629C8.65633 13.7713 9.20636 13.2222 9.20449 12.5456C9.20263 11.8826 8.6694 11.3503 8.0045 11.3484V11.3479Z" fill="#FFAD2F"/>
<path d="M8.00086 10.1138C7.74452 10.1138 7.48818 10.1105 7.2323 10.1152C7.07495 10.118 6.99931 10.0549 6.98764 9.89245C6.84803 7.95893 6.70748 6.02587 6.56087 4.09281C6.53892 3.80051 6.51838 3.51336 6.61923 3.2304C6.86203 2.54963 7.56008 2.14481 8.27307 2.27461C8.97533 2.40255 9.49735 3.03663 9.4642 3.76409C9.43291 4.45 9.36848 5.13451 9.31758 5.81949C9.24147 6.84718 9.16396 7.87441 9.08739 8.90164C9.06264 9.23269 9.03649 9.56327 9.01688 9.89432C9.00801 10.0447 8.94077 10.1166 8.78809 10.1147C8.52615 10.1114 8.26374 10.1138 8.00179 10.1138H8.00086Z" fill="white"/>
<path d="M8.00458 11.3467C8.66948 11.349 9.20271 11.8808 9.20458 12.5439C9.20644 13.2204 8.65594 13.7695 7.98451 13.7611C7.32848 13.7532 6.78965 13.2074 6.78918 12.5499C6.78918 11.8846 7.33455 11.3443 8.00458 11.3462V11.3467Z" fill="white"/>
</svg>
