<svg width="76" height="84" viewBox="0 0 76 84" fill="none" xmlns="http://www.w3.org/2000/svg">
<path d="M44 0V24C44 26.1217 44.8429 28.1566 46.3431 29.6568C47.8434 31.1571 49.8783 32 52 32H76V72C76 74.1217 75.1571 76.1566 73.6569 77.6568C72.1566 79.1571 70.1217 80 68 80H40.76C44.9001 75.6903 47.4292 70.086 47.9216 64.1303C48.4141 58.1746 46.8398 52.231 43.4638 47.2999C40.0878 42.3688 35.1162 38.7511 29.3856 37.0559C23.655 35.3606 17.5154 35.6912 12 37.992V8C12 5.87827 12.8429 3.84344 14.3431 2.34315C15.8434 0.842854 17.8783 0 20 0H44ZM50 2V24C50 24.5304 50.2107 25.0391 50.5858 25.4142C50.9609 25.7893 51.4696 26 52 26H74L50 2ZM44 62C44 59.1109 43.431 56.2501 42.3254 53.581C41.2197 50.9118 39.5992 48.4865 37.5564 46.4436C35.5135 44.4008 33.0882 42.7802 30.419 41.6746C27.7499 40.569 24.8891 40 22 40C19.1109 40 16.2501 40.569 13.581 41.6746C10.9118 42.7802 8.48654 44.4008 6.44365 46.4436C4.40076 48.4865 2.78025 50.9118 1.67465 53.581C0.569047 56.2501 -4.30507e-08 59.1109 0 62C8.69447e-08 67.8348 2.31785 73.4305 6.44365 77.5563C10.5695 81.6821 16.1652 84 22 84C27.8348 84 33.4305 81.6821 37.5564 77.5563C41.6822 73.4305 44 67.8348 44 62ZM24 64L24.004 74.012C24.004 74.5424 23.7933 75.0511 23.4182 75.4262C23.0431 75.8013 22.5344 76.012 22.004 76.012C21.4736 76.012 20.9649 75.8013 20.5898 75.4262C20.2147 75.0511 20.004 74.5424 20.004 74.012V64H9.984C9.45357 64 8.94486 63.7893 8.56979 63.4142C8.19471 63.0391 7.984 62.5304 7.984 62C7.984 61.4696 8.19471 60.9608 8.56979 60.5858C8.94486 60.2107 9.45357 60 9.984 60H20V50C20 49.4696 20.2107 48.9609 20.5858 48.5858C20.9609 48.2107 21.4696 48 22 48C22.5304 48 23.0391 48.2107 23.4142 48.5858C23.7893 48.9609 24 49.4696 24 50V60H33.988C34.5184 60 35.0271 60.2107 35.4022 60.5858C35.7773 60.9608 35.988 61.4696 35.988 62C35.988 62.5304 35.7773 63.0391 35.4022 63.4142C35.0271 63.7893 34.5184 64 33.988 64H24Z" fill="#979797"/>
</svg>
