<svg width="14" height="14" viewBox="0 0 14 14" fill="none" xmlns="http://www.w3.org/2000/svg">
<path d="M6.89329 0C3.0866 0 0 3.0866 0 6.89329C0 10.7 3.0866 13.7866 6.89329 13.7866C10.7 13.7866 13.7866 10.7 13.7866 6.89329C13.7866 3.0866 10.7 0 6.89329 0ZM6.89329 12.6172C3.73284 12.6172 1.1694 10.0537 1.1694 6.89329C1.1694 3.73284 3.73284 1.1694 6.89329 1.1694C10.0537 1.1694 12.6172 3.73284 12.6172 6.89329C12.6172 10.0537 10.0537 12.6172 6.89329 12.6172Z" fill="#717171"/>
<path d="M6.1543 4.18583C6.1543 4.38171 6.23211 4.56957 6.37062 4.70808C6.50913 4.84659 6.69698 4.9244 6.89286 4.9244C7.08874 4.9244 7.2766 4.84659 7.41511 4.70808C7.55362 4.56957 7.63143 4.38171 7.63143 4.18583C7.63143 3.98995 7.55362 3.8021 7.41511 3.66359C7.2766 3.52508 7.08874 3.44727 6.89286 3.44727C6.69698 3.44727 6.50913 3.52508 6.37062 3.66359C6.23211 3.8021 6.1543 3.98995 6.1543 4.18583V4.18583ZM7.26215 5.90916H6.52358C6.45588 5.90916 6.40049 5.96455 6.40049 6.03225V10.2175C6.40049 10.2852 6.45588 10.3406 6.52358 10.3406H7.26215C7.32985 10.3406 7.38524 10.2852 7.38524 10.2175V6.03225C7.38524 5.96455 7.32985 5.90916 7.26215 5.90916Z" fill="#717171"/>
</svg>
