<svg width="9" height="9" viewBox="0 0 9 9" fill="none" xmlns="http://www.w3.org/2000/svg">
<path fill-rule="evenodd" clip-rule="evenodd" d="M4.5 0.375C2.22188 0.375 0.375 2.22188 0.375 4.5C0.375 6.77812 2.22188 8.625 4.5 8.625C6.77812 8.625 8.625 6.77812 8.625 4.5C8.625 2.22188 6.77812 0.375 4.5 0.375ZM4.3125 2.25C4.21304 2.25 4.11766 2.28951 4.04734 2.35984C3.97701 2.43016 3.9375 2.52554 3.9375 2.625C3.9375 2.72446 3.97701 2.81984 4.04734 2.89016C4.11766 2.96049 4.21304 3 4.3125 3H4.5C4.59946 3 4.69484 2.96049 4.76516 2.89016C4.83549 2.81984 4.875 2.72446 4.875 2.625C4.875 2.52554 4.83549 2.43016 4.76516 2.35984C4.69484 2.28951 4.59946 2.25 4.5 2.25H4.3125ZM3.75 3.75C3.65054 3.75 3.55516 3.78951 3.48484 3.85984C3.41451 3.93016 3.375 4.02554 3.375 4.125C3.375 4.22446 3.41451 4.31984 3.48484 4.39016C3.55516 4.46049 3.65054 4.5 3.75 4.5H4.125V5.625H3.75C3.65054 5.625 3.55516 5.66451 3.48484 5.73484C3.41451 5.80516 3.375 5.90054 3.375 6C3.375 6.09946 3.41451 6.19484 3.48484 6.26517C3.55516 6.33549 3.65054 6.375 3.75 6.375H5.25C5.34946 6.375 5.44484 6.33549 5.51516 6.26517C5.58549 6.19484 5.625 6.09946 5.625 6C5.625 5.90054 5.58549 5.80516 5.51516 5.73484C5.44484 5.66451 5.34946 5.625 5.25 5.625H4.875V4.125C4.875 4.02554 4.83549 3.93016 4.76516 3.85984C4.69484 3.78951 4.59946 3.75 4.5 3.75H3.75Z" fill="#FDAF2F"/>
</svg>
