<svg width="12" height="12" viewBox="0 0 12 12" fill="none" xmlns="http://www.w3.org/2000/svg">
<path d="M11.9727 3.51818C11.9818 3.84546 11.9886 4.13636 11.9932 4.39091C11.9977 4.64546 12 5.18181 12 6C12 6.81819 11.9977 7.35454 11.9932 7.60909C11.9886 7.86364 11.9818 8.15 11.9727 8.46818C11.9545 8.79546 11.9205 9.07273 11.8705 9.3C11.8205 9.52727 11.7591 9.73636 11.6864 9.92727C11.6136 10.1273 11.5227 10.3136 11.4136 10.4864C11.3045 10.6591 11.1636 10.8273 10.9909 10.9909C10.8273 11.1636 10.6591 11.3045 10.4864 11.4136C10.3136 11.5227 10.1273 11.6136 9.92727 11.6864C9.73636 11.7591 9.52727 11.8205 9.3 11.8705C9.07273 11.9205 8.8 11.9545 8.48182 11.9727C8.15455 11.9818 7.86364 11.9886 7.60909 11.9932C7.35455 11.9977 6.81819 12 6 12C5.18181 12 4.64545 11.9977 4.39091 11.9932C4.13636 11.9886 3.85 11.9818 3.53182 11.9727C3.20454 11.9545 2.92727 11.9205 2.7 11.8705C2.47273 11.8205 2.26364 11.7591 2.07273 11.6864C1.87273 11.6136 1.68637 11.5227 1.51364 11.4136C1.34091 11.3045 1.17273 11.1636 1.00909 10.9909C0.836362 10.8273 0.695456 10.6591 0.586365 10.4864C0.477273 10.3136 0.386364 10.1273 0.313637 9.92727C0.240909 9.73636 0.179547 9.52727 0.129547 9.3C0.0795466 9.07273 0.0454533 8.8 0.0272713 8.48182C0.0181808 8.15454 0.0113624 7.86364 0.00681686 7.60909C0.00227136 7.35454 0 6.81819 0 6C0 5.18181 0.00227136 4.64546 0.00681686 4.39091C0.0113624 4.13636 0.0181808 3.85 0.0272713 3.53182C0.0454533 3.20454 0.0795466 2.92727 0.129547 2.7C0.179547 2.47273 0.240909 2.26364 0.313637 2.07273C0.386364 1.87273 0.477273 1.68636 0.586365 1.51364C0.695456 1.34091 0.836362 1.17273 1.00909 1.00909C1.17273 0.836363 1.34091 0.695455 1.51364 0.586364C1.68637 0.477272 1.87273 0.386364 2.07273 0.313636C2.26364 0.240909 2.47273 0.179546 2.7 0.129545C2.92727 0.0795452 3.2 0.0454546 3.51818 0.0272727C3.84546 0.0181818 4.13636 0.0113637 4.39091 0.00681818C4.64545 0.0022727 5.18181 0 6 0C6.81819 0 7.35455 0.0022727 7.60909 0.00681818C7.86364 0.0113637 8.15 0.0181818 8.46818 0.0272727C8.79546 0.0454546 9.07273 0.0795452 9.3 0.129545C9.52727 0.179546 9.73636 0.240909 9.92727 0.313636C10.1273 0.386364 10.3136 0.477272 10.4864 0.586364C10.6591 0.695455 10.8273 0.836363 10.9909 1.00909C11.1636 1.17273 11.3045 1.34091 11.4136 1.51364C11.5227 1.68636 11.6136 1.87273 11.6864 2.07273C11.7591 2.26364 11.8205 2.47273 11.8705 2.7C11.9205 2.92727 11.9545 3.2 11.9727 3.51818ZM10.8818 8.42727C10.9 8.10909 10.9114 7.825 10.9159 7.575C10.9205 7.325 10.9227 6.8 10.9227 6C10.9227 5.2 10.9205 4.675 10.9159 4.425C10.9114 4.175 10.9 3.89091 10.8818 3.57273C10.8727 3.28182 10.8477 3.05 10.8068 2.87727C10.7659 2.70454 10.7227 2.56364 10.6773 2.45455C10.6227 2.31818 10.5614 2.19546 10.4932 2.08636C10.425 1.97727 10.3364 1.87273 10.2273 1.77273C10.1273 1.66364 10.0227 1.575 9.91364 1.50682C9.80454 1.43864 9.68182 1.37727 9.54546 1.32273C9.43637 1.27727 9.29545 1.23409 9.12273 1.19318C8.95 1.15227 8.71818 1.12727 8.42727 1.11818C8.10909 1.1 7.825 1.08864 7.575 1.08409C7.325 1.07955 6.8 1.07727 6 1.07727C5.2 1.07727 4.675 1.07955 4.425 1.08409C4.175 1.08864 3.89091 1.1 3.57273 1.11818C3.28182 1.12727 3.05 1.15227 2.87727 1.19318C2.70455 1.23409 2.56364 1.27727 2.45454 1.32273C2.31818 1.37727 2.19546 1.43864 2.08636 1.50682C1.97727 1.575 1.87273 1.66364 1.77273 1.77273C1.66364 1.87273 1.575 1.97727 1.50682 2.08636C1.43863 2.19546 1.37727 2.31818 1.32273 2.45455C1.27727 2.56364 1.23409 2.70454 1.19318 2.87727C1.15227 3.05 1.12727 3.28182 1.11818 3.57273C1.1 3.89091 1.08864 4.175 1.08409 4.425C1.07955 4.675 1.07727 5.2 1.07727 6C1.07727 6.8 1.07955 7.325 1.08409 7.575C1.08864 7.825 1.1 8.10909 1.11818 8.42727C1.12727 8.71818 1.15227 8.95 1.19318 9.12273C1.23409 9.29546 1.27727 9.43636 1.32273 9.54545C1.37727 9.68182 1.43863 9.80454 1.50682 9.91364C1.575 10.0227 1.66364 10.1273 1.77273 10.2273C1.87273 10.3364 1.97727 10.425 2.08636 10.4932C2.19546 10.5614 2.31818 10.6227 2.45454 10.6773C2.56364 10.7227 2.70455 10.7659 2.87727 10.8068C3.05 10.8477 3.28182 10.8727 3.57273 10.8818C3.89091 10.9 4.175 10.9114 4.425 10.9159C4.675 10.9205 5.2 10.9227 6 10.9227C6.8 10.9227 7.325 10.9205 7.575 10.9159C7.825 10.9114 8.10909 10.9 8.42727 10.8818C8.71818 10.8727 8.95 10.8477 9.12273 10.8068C9.29545 10.7659 9.43637 10.7227 9.54546 10.6773C9.68182 10.6227 9.80454 10.5614 9.91364 10.4932C10.0227 10.425 10.1273 10.3364 10.2273 10.2273C10.3364 10.1273 10.425 10.0227 10.4932 9.91364C10.5614 9.80454 10.6227 9.68182 10.6773 9.54545C10.7227 9.43636 10.7659 9.29546 10.8068 9.12273C10.8477 8.95 10.8727 8.71818 10.8818 8.42727ZM6 2.91818C6.42728 2.91818 6.82727 3 7.2 3.16364C7.57273 3.31818 7.9 3.53636 8.18182 3.81818C8.46364 4.1 8.68182 4.42727 8.83636 4.8C9 5.17273 9.08182 5.57273 9.08182 6C9.08182 6.42728 9 6.82727 8.83636 7.2C8.68182 7.57273 8.46364 7.9 8.18182 8.18182C7.9 8.46364 7.57273 8.68182 7.2 8.83636C6.82727 9 6.42728 9.08182 6 9.08182C5.57273 9.08182 5.17273 9 4.8 8.83636C4.42727 8.68182 4.1 8.46364 3.81818 8.18182C3.53636 7.9 3.31818 7.57273 3.16364 7.2C3 6.82727 2.91818 6.42728 2.91818 6C2.91818 5.57273 3 5.17273 3.16364 4.8C3.31818 4.42727 3.53636 4.1 3.81818 3.81818C4.1 3.53636 4.42727 3.31818 4.8 3.16364C5.17273 3 5.57273 2.91818 6 2.91818ZM6 8.00455C6.55455 8.00455 7.02727 7.80909 7.41818 7.41818C7.80909 7.02727 8.00455 6.55455 8.00455 6C8.00455 5.44545 7.80909 4.97273 7.41818 4.58182C7.02727 4.19091 6.55455 3.99545 6 3.99545C5.44545 3.99545 4.97273 4.19091 4.58182 4.58182C4.19091 4.97273 3.99545 5.44545 3.99545 6C3.99545 6.55455 4.19091 7.02727 4.58182 7.41818C4.97273 7.80909 5.44545 8.00455 6 8.00455ZM9.9 2.63182C9.94546 2.82273 9.91591 3.00227 9.81136 3.17045C9.70682 3.33864 9.55909 3.44545 9.36818 3.49091C9.17727 3.53636 8.99773 3.50682 8.82954 3.40227C8.66136 3.29773 8.55455 3.15 8.50909 2.95909C8.46364 2.76818 8.49318 2.58864 8.59773 2.42045C8.70227 2.25227 8.85 2.14545 9.04091 2.1C9.23182 2.04545 9.41136 2.07273 9.57954 2.18182C9.74773 2.29091 9.85455 2.44091 9.9 2.63182Z" fill="white"/>
</svg>
