<svg width="11" height="11" viewBox="0 0 11 11" fill="none" xmlns="http://www.w3.org/2000/svg">
<path d="M6.33631 4.66383C5.89263 4.22033 5.29098 3.97119 4.66365 3.97119C4.03631 3.97119 3.43466 4.22033 2.99098 4.66383L1.31777 6.3365C0.87408 6.78019 0.624817 7.38196 0.624817 8.00943C0.624817 8.63691 0.87408 9.23868 1.31777 9.68237C1.76146 10.1261 2.36323 10.3753 2.99071 10.3753C3.61818 10.3753 4.21996 10.1261 4.66365 9.68237L5.49998 8.84604" stroke="white" stroke-linecap="round" stroke-linejoin="round"/>
<path d="M4.64069 6.33649C5.08437 6.77999 5.68602 7.02913 6.31335 7.02913C6.94068 7.02913 7.54234 6.77999 7.98602 6.33649L9.65923 4.66383C10.1029 4.22014 10.3522 3.61836 10.3522 2.99089C10.3522 2.36342 10.1029 1.76164 9.65923 1.31795C9.21554 0.874263 8.61376 0.625 7.98629 0.625C7.35882 0.625 6.75704 0.874263 6.31335 1.31795L5.47702 2.15429" stroke="white" stroke-linecap="round" stroke-linejoin="round"/>
</svg>
