<svg width="11" height="11" viewBox="0 0 11 11" fill="none" xmlns="http://www.w3.org/2000/svg">
<g id="&#240;&#159;&#166;&#134; icon &#34;plus&#34;">
<path id="Vector" d="M10.3125 4.8125H6.1875V0.6875C6.1875 0.505164 6.11507 0.330295 5.98614 0.201364C5.8572 0.072433 5.68234 0 5.5 0C5.31766 0 5.1428 0.072433 5.01386 0.201364C4.88493 0.330295 4.8125 0.505164 4.8125 0.6875V4.8125H0.6875C0.505164 4.8125 0.330295 4.88493 0.201364 5.01386C0.072433 5.1428 0 5.31766 0 5.5C0 5.68234 0.072433 5.8572 0.201364 5.98614C0.330295 6.11507 0.505164 6.1875 0.6875 6.1875H4.8125V10.3125C4.8125 10.4948 4.88493 10.6697 5.01386 10.7986C5.1428 10.9276 5.31766 11 5.5 11C5.68234 11 5.8572 10.9276 5.98614 10.7986C6.11507 10.6697 6.1875 10.4948 6.1875 10.3125V6.1875H10.3125C10.4948 6.1875 10.6697 6.11507 10.7986 5.98614C10.9276 5.8572 11 5.68234 11 5.5C11 5.31766 10.9276 5.1428 10.7986 5.01386C10.6697 4.88493 10.4948 4.8125 10.3125 4.8125Z" fill="#FFAD2F"/>
</g>
</svg>
