<svg width="24" height="21" viewBox="0 0 24 21" fill="none" xmlns="http://www.w3.org/2000/svg">
<g id="&#240;&#159;&#166;&#134; icon &#34;wallet&#34;" opacity="0.9">
<path id="Vector" d="M23.6507 3.54577C23.5397 3.43377 23.4076 3.34495 23.262 3.28448C23.1163 3.22401 22.9601 3.19309 22.8025 3.19354H21.9556V1.19758C21.9552 0.880069 21.8289 0.575668 21.6044 0.351156C21.3799 0.126644 21.0755 0.000356595 20.758 0H3.52422C2.58954 1.32337e-05 1.69315 0.371318 1.03223 1.03223C0.371318 1.69315 1.32337e-05 2.58954 0 3.52422V17.2338C1.32337e-05 18.1684 0.371318 19.0648 1.03223 19.7258C1.69315 20.3867 2.58954 20.758 3.52422 20.758H22.7553C23.0721 20.7574 23.3757 20.6315 23.6001 20.4079C23.8244 20.1843 23.9512 19.881 23.9529 19.5643L24 4.3952C24.001 4.23754 23.9706 4.08125 23.9106 3.93542C23.8507 3.7896 23.7623 3.65715 23.6507 3.54577ZM22.3574 19.1612H3.52422C3.01303 19.1612 2.52277 18.9581 2.16131 18.5967C1.79984 18.2352 1.59677 17.745 1.59677 17.2338V3.52422C1.59677 3.01303 1.79984 2.52277 2.16131 2.1613C2.52277 1.79984 3.01303 1.59677 3.52422 1.59677H20.3588V3.19354H3.59273V4.7903H22.402L22.3574 19.1612Z" fill="white"/>
<path id="Vector_2" d="M20.3585 10.7783H18.7617V12.3751H20.3585V10.7783Z" fill="white"/>
</g>
</svg>
