<svg width="768" height="46" viewBox="0 0 768 46" fill="none" xmlns="http://www.w3.org/2000/svg">
<path d="M136.42 16.06V17.54H130.36V22.24H135.28V23.72H130.36V30H128.54V16.06H136.42ZM143.598 30.18C142.571 30.18 141.638 29.9467 140.798 29.48C139.971 29.0133 139.318 28.3533 138.838 27.5C138.371 26.6333 138.138 25.6333 138.138 24.5C138.138 23.38 138.378 22.3933 138.858 21.54C139.351 20.6733 140.018 20.0133 140.858 19.56C141.698 19.0933 142.638 18.86 143.678 18.86C144.718 18.86 145.658 19.0933 146.498 19.56C147.338 20.0133 147.998 20.6667 148.478 21.52C148.971 22.3733 149.218 23.3667 149.218 24.5C149.218 25.6333 148.965 26.6333 148.458 27.5C147.965 28.3533 147.291 29.0133 146.438 29.48C145.585 29.9467 144.638 30.18 143.598 30.18ZM143.598 28.58C144.251 28.58 144.865 28.4267 145.438 28.12C146.011 27.8133 146.471 27.3533 146.818 26.74C147.178 26.1267 147.358 25.38 147.358 24.5C147.358 23.62 147.185 22.8733 146.838 22.26C146.491 21.6467 146.038 21.1933 145.478 20.9C144.918 20.5933 144.311 20.44 143.658 20.44C142.991 20.44 142.378 20.5933 141.818 20.9C141.271 21.1933 140.831 21.6467 140.498 22.26C140.165 22.8733 139.998 23.62 139.998 24.5C139.998 25.3933 140.158 26.1467 140.478 26.76C140.811 27.3733 141.251 27.8333 141.798 28.14C142.345 28.4333 142.945 28.58 143.598 28.58ZM153.631 15.2V30H151.811V15.2H153.631ZM158.753 15.2V30H156.933V15.2H158.753ZM166.835 30.18C165.808 30.18 164.875 29.9467 164.035 29.48C163.208 29.0133 162.555 28.3533 162.075 27.5C161.608 26.6333 161.375 25.6333 161.375 24.5C161.375 23.38 161.615 22.3933 162.095 21.54C162.588 20.6733 163.255 20.0133 164.095 19.56C164.935 19.0933 165.875 18.86 166.915 18.86C167.955 18.86 168.895 19.0933 169.735 19.56C170.575 20.0133 171.235 20.6667 171.715 21.52C172.208 22.3733 172.455 23.3667 172.455 24.5C172.455 25.6333 172.202 26.6333 171.695 27.5C171.202 28.3533 170.528 29.0133 169.675 29.48C168.822 29.9467 167.875 30.18 166.835 30.18ZM166.835 28.58C167.488 28.58 168.102 28.4267 168.675 28.12C169.248 27.8133 169.708 27.3533 170.055 26.74C170.415 26.1267 170.595 25.38 170.595 24.5C170.595 23.62 170.422 22.8733 170.075 22.26C169.728 21.6467 169.275 21.1933 168.715 20.9C168.155 20.5933 167.548 20.44 166.895 20.44C166.228 20.44 165.615 20.5933 165.055 20.9C164.508 21.1933 164.068 21.6467 163.735 22.26C163.402 22.8733 163.235 23.62 163.235 24.5C163.235 25.3933 163.395 26.1467 163.715 26.76C164.048 27.3733 164.488 27.8333 165.035 28.14C165.582 28.4333 166.182 28.58 166.835 28.58ZM189.648 19.04L186.228 30H184.348L181.708 21.3L179.068 30H177.188L173.748 19.04H175.608L178.128 28.24L180.848 19.04H182.708L185.368 28.26L187.848 19.04H189.648ZM207.186 17.18C208.666 17.18 209.953 17.46 211.046 18.02C212.139 18.58 212.979 19.3667 213.566 20.38C214.153 21.38 214.446 22.54 214.446 23.86C214.446 24.9133 214.273 25.9267 213.926 26.9C213.579 27.86 213.073 28.64 212.406 29.24C211.753 29.84 210.986 30.14 210.106 30.14C209.439 30.14 208.926 29.9733 208.566 29.64C208.206 29.3067 207.999 28.8533 207.946 28.28C207.533 28.8533 207.006 29.3067 206.366 29.64C205.739 29.9733 205.073 30.14 204.366 30.14C203.353 30.14 202.553 29.8333 201.966 29.22C201.393 28.5933 201.106 27.7533 201.106 26.7C201.106 25.7 201.313 24.7667 201.726 23.9C202.153 23.0333 202.739 22.34 203.486 21.82C204.233 21.2867 205.079 21.02 206.026 21.02C207.293 21.02 208.146 21.5 208.586 22.46L208.806 21.22H210.386L209.386 27C209.346 27.2533 209.326 27.4867 209.326 27.7C209.326 28.5 209.679 28.9 210.386 28.9C210.919 28.9 211.379 28.6467 211.766 28.14C212.166 27.6333 212.466 27 212.666 26.24C212.866 25.4667 212.966 24.7067 212.966 23.96C212.966 22.2133 212.439 20.86 211.386 19.9C210.346 18.94 208.873 18.46 206.966 18.46C205.379 18.46 203.946 18.8467 202.666 19.62C201.399 20.38 200.406 21.4267 199.686 22.76C198.966 24.0933 198.606 25.5667 198.606 27.18C198.593 28.94 199.119 30.2933 200.186 31.24C201.253 32.2 202.733 32.68 204.626 32.68C205.879 32.68 206.986 32.4533 207.946 32L208.186 33.24C206.999 33.7333 205.693 33.98 204.266 33.98C202.839 33.98 201.579 33.7067 200.486 33.16C199.406 32.6267 198.566 31.8533 197.966 30.84C197.379 29.84 197.086 28.6733 197.086 27.34C197.086 25.46 197.519 23.7467 198.386 22.2C199.253 20.64 200.453 19.4133 201.986 18.52C203.533 17.6267 205.266 17.18 207.186 17.18ZM204.906 28.72C205.506 28.72 206.059 28.5467 206.566 28.2C207.073 27.84 207.473 27.36 207.766 26.76C208.059 26.1467 208.206 25.48 208.206 24.76C208.206 24.0667 208.013 23.5067 207.626 23.08C207.253 22.64 206.719 22.42 206.026 22.42C205.386 22.42 204.819 22.6133 204.326 23C203.846 23.3733 203.473 23.8733 203.206 24.5C202.939 25.1133 202.806 25.7533 202.806 26.42C202.806 27.1267 202.986 27.6867 203.346 28.1C203.706 28.5133 204.226 28.72 204.906 28.72ZM226.22 16.06V17.54H222.42V30H220.6V17.54H216.78V16.06H226.22ZM233 16.06C234.52 16.06 235.834 16.3467 236.94 16.92C238.06 17.48 238.914 18.2867 239.5 19.34C240.1 20.3933 240.4 21.6333 240.4 23.06C240.4 24.4867 240.1 25.7267 239.5 26.78C238.914 27.82 238.06 28.62 236.94 29.18C235.834 29.7267 234.52 30 233 30H228.66V16.06H233ZM233 28.5C234.8 28.5 236.174 28.0267 237.12 27.08C238.067 26.12 238.54 24.78 238.54 23.06C238.54 21.3267 238.06 19.9733 237.1 19C236.154 18.0267 234.787 17.54 233 17.54H230.48V28.5H233ZM248.701 23.04L252.981 30H250.921L247.581 24.56L244.401 30H242.381L246.641 23.04L242.361 16.06H244.401L247.761 21.52L250.961 16.06H253.001L248.701 23.04ZM265.935 30.18C264.908 30.18 263.975 29.9467 263.135 29.48C262.308 29.0133 261.655 28.3533 261.175 27.5C260.708 26.6333 260.475 25.6333 260.475 24.5C260.475 23.38 260.715 22.3933 261.195 21.54C261.688 20.6733 262.355 20.0133 263.195 19.56C264.035 19.0933 264.975 18.86 266.015 18.86C267.055 18.86 267.995 19.0933 268.835 19.56C269.675 20.0133 270.335 20.6667 270.815 21.52C271.308 22.3733 271.555 23.3667 271.555 24.5C271.555 25.6333 271.302 26.6333 270.795 27.5C270.302 28.3533 269.628 29.0133 268.775 29.48C267.922 29.9467 266.975 30.18 265.935 30.18ZM265.935 28.58C266.588 28.58 267.202 28.4267 267.775 28.12C268.348 27.8133 268.808 27.3533 269.155 26.74C269.515 26.1267 269.695 25.38 269.695 24.5C269.695 23.62 269.522 22.8733 269.175 22.26C268.828 21.6467 268.375 21.1933 267.815 20.9C267.255 20.5933 266.648 20.44 265.995 20.44C265.328 20.44 264.715 20.5933 264.155 20.9C263.608 21.1933 263.168 21.6467 262.835 22.26C262.502 22.8733 262.335 23.62 262.335 24.5C262.335 25.3933 262.495 26.1467 262.815 26.76C263.148 27.3733 263.588 27.8333 264.135 28.14C264.682 28.4333 265.282 28.58 265.935 28.58ZM279.488 18.84C280.821 18.84 281.901 19.2467 282.728 20.06C283.554 20.86 283.968 22.02 283.968 23.54V30H282.168V23.8C282.168 22.7067 281.894 21.8733 281.348 21.3C280.801 20.7133 280.054 20.42 279.108 20.42C278.148 20.42 277.381 20.72 276.808 21.32C276.248 21.92 275.968 22.7933 275.968 23.94V30H274.148V19.04H275.968V20.6C276.328 20.04 276.814 19.6067 277.428 19.3C278.054 18.9933 278.741 18.84 279.488 18.84ZM301.253 16.06V17.54H297.453V30H295.633V17.54H291.813V16.06H301.253ZM318.293 19.04L314.873 30H312.993L310.353 21.3L307.713 30H305.833L302.393 19.04H304.253L306.773 28.24L309.493 19.04H311.353L314.013 28.26L316.493 19.04H318.293ZM321.239 17.26C320.893 17.26 320.599 17.14 320.359 16.9C320.119 16.66 319.999 16.3667 319.999 16.02C319.999 15.6733 320.119 15.38 320.359 15.14C320.599 14.9 320.893 14.78 321.239 14.78C321.573 14.78 321.853 14.9 322.079 15.14C322.319 15.38 322.439 15.6733 322.439 16.02C322.439 16.3667 322.319 16.66 322.079 16.9C321.853 17.14 321.573 17.26 321.239 17.26ZM322.119 19.04V30H320.299V19.04H322.119ZM327.641 20.54V27C327.641 27.5333 327.755 27.9133 327.981 28.14C328.208 28.3533 328.601 28.46 329.161 28.46H330.501V30H328.861C327.848 30 327.088 29.7667 326.581 29.3C326.075 28.8333 325.821 28.0667 325.821 27V20.54H324.401V19.04H325.821V16.28H327.641V19.04H330.501V20.54H327.641ZM335.126 20.54V27C335.126 27.5333 335.24 27.9133 335.466 28.14C335.693 28.3533 336.086 28.46 336.646 28.46H337.986V30H336.346C335.333 30 334.573 29.7667 334.066 29.3C333.56 28.8333 333.306 28.0667 333.306 27V20.54H331.886V19.04H333.306V16.28H335.126V19.04H337.986V20.54H335.126ZM350.392 24.1C350.392 24.4467 350.372 24.8133 350.332 25.2H341.572C341.638 26.28 342.005 27.1267 342.672 27.74C343.352 28.34 344.172 28.64 345.132 28.64C345.918 28.64 346.572 28.46 347.092 28.1C347.625 27.7267 347.998 27.2333 348.212 26.62H350.172C349.878 27.6733 349.292 28.5333 348.412 29.2C347.532 29.8533 346.438 30.18 345.132 30.18C344.092 30.18 343.158 29.9467 342.332 29.48C341.518 29.0133 340.878 28.3533 340.412 27.5C339.945 26.6333 339.712 25.6333 339.712 24.5C339.712 23.3667 339.938 22.3733 340.392 21.52C340.845 20.6667 341.478 20.0133 342.292 19.56C343.118 19.0933 344.065 18.86 345.132 18.86C346.172 18.86 347.092 19.0867 347.892 19.54C348.692 19.9933 349.305 20.62 349.732 21.42C350.172 22.2067 350.392 23.1 350.392 24.1ZM348.512 23.72C348.512 23.0267 348.358 22.4333 348.052 21.94C347.745 21.4333 347.325 21.0533 346.792 20.8C346.272 20.5333 345.692 20.4 345.052 20.4C344.132 20.4 343.345 20.6933 342.692 21.28C342.052 21.8667 341.685 22.68 341.592 23.72H348.512ZM354.814 20.82C355.134 20.1933 355.587 19.7067 356.174 19.36C356.774 19.0133 357.501 18.84 358.354 18.84V20.72H357.874C355.834 20.72 354.814 21.8267 354.814 24.04V30H352.994V19.04H354.814V20.82Z" fill="white"/>
<path d="M766.204 19.116H761.812V22.188C762.012 21.908 762.304 21.68 762.688 21.504C763.072 21.32 763.488 21.228 763.936 21.228C764.592 21.228 765.128 21.364 765.544 21.636C765.96 21.9 766.26 22.248 766.444 22.68C766.628 23.104 766.72 23.56 766.72 24.048C766.72 24.608 766.612 25.116 766.396 25.572C766.188 26.02 765.864 26.376 765.424 26.64C764.992 26.904 764.452 27.036 763.804 27.036C762.98 27.036 762.312 26.824 761.8 26.4C761.288 25.968 760.976 25.388 760.864 24.66H761.692C761.796 25.188 762.036 25.596 762.412 25.884C762.788 26.172 763.252 26.316 763.804 26.316C764.5 26.316 765.024 26.112 765.376 25.704C765.736 25.288 765.916 24.74 765.916 24.06C765.916 23.396 765.736 22.88 765.376 22.512C765.016 22.136 764.5 21.948 763.828 21.948C763.364 21.948 762.956 22.056 762.604 22.272C762.252 22.488 761.992 22.78 761.824 23.148H761.032V18.384H766.204V19.116Z" fill="white"/>
<path d="M595.612 26.34C597.084 25.236 598.22 24.248 599.02 23.376C599.828 22.496 600.232 21.636 600.232 20.796C600.232 20.244 600.092 19.804 599.812 19.476C599.54 19.14 599.092 18.972 598.468 18.972C597.86 18.972 597.388 19.164 597.052 19.548C596.724 19.924 596.54 20.428 596.5 21.06H595.684C595.732 20.172 596.004 19.484 596.5 18.996C597.004 18.5 597.66 18.252 598.468 18.252C599.244 18.252 599.872 18.472 600.352 18.912C600.832 19.344 601.072 19.96 601.072 20.76C601.072 21.728 600.668 22.668 599.86 23.58C599.06 24.484 598.072 25.368 596.896 26.232H601.336V26.94H595.612V26.34ZM606.067 20.328C606.563 20.328 607.007 20.432 607.399 20.64C607.799 20.848 608.111 21.168 608.335 21.6C608.567 22.024 608.683 22.544 608.683 23.16V27H607.855V23.256C607.855 22.544 607.675 22 607.315 21.624C606.963 21.248 606.479 21.06 605.863 21.06C605.231 21.06 604.727 21.26 604.351 21.66C603.975 22.06 603.787 22.648 603.787 23.424V27H602.947V18.12H603.787V21.564C603.995 21.172 604.299 20.868 604.699 20.652C605.107 20.436 605.563 20.328 606.067 20.328Z" fill="white"/>
<circle cx="23" cy="23" r="23" fill="#54B5E8"/>
<g filter="url(#filter0_d_145_1689)">
<path d="M35 15.3676C34.7989 15.4589 34.595 15.5433 34.3888 15.6205C33.8865 15.8085 33.4873 15.0329 33.7751 14.5804C34.0222 14.1919 33.5856 13.7946 33.1635 13.9787C32.7175 14.1732 32.2577 14.3338 31.788 14.4592C31.4322 14.5541 31.0636 14.4217 30.7845 14.1815C29.928 13.4442 28.8216 13 27.6162 13C24.8968 13 22.6921 15.2607 22.6921 18.0489C22.6921 18.6312 22.2417 19.1701 21.6648 19.0913C18.9568 18.7212 16.4939 17.5583 14.5048 15.8371C13.5444 15.0061 12.0042 15.1925 12.0042 16.4625C12.0042 17.6443 12.3998 18.7321 13.0629 19.5929C13.342 19.9551 13.0941 20.5227 12.6659 20.3624C12.4444 20.2795 12.2284 20.18 12.0197 20.0646C11.9947 20.0508 11.964 20.0684 11.964 20.097C11.964 21.9681 12.9569 23.6019 14.4317 24.4743C14.7807 24.6807 14.7393 25.2406 14.3346 25.2166C14.0421 25.1992 13.8005 25.474 13.9228 25.7402C14.1606 26.258 14.4817 26.7277 14.8686 27.1311C15.7692 28.0703 16.1598 30.0437 14.9112 30.4102C14.0419 30.6654 13.1238 30.8021 12.1746 30.8021C11.8826 30.8021 11.7532 31.197 12.0098 31.3364C13.9616 32.3966 16.1852 33 18.5478 33C27.6047 33 32.5573 25.3064 32.5573 18.6344C32.5573 18.2259 32.7432 17.8394 33.0549 17.5753C33.8035 16.9409 34.459 16.1974 35 15.3676Z" fill="white"/>
</g>
<defs>
<filter id="filter0_d_145_1689" x="7.87207" y="13" width="31.1279" height="28" filterUnits="userSpaceOnUse" color-interpolation-filters="sRGB">
<feFlood flood-opacity="0" result="BackgroundImageFix"/>
<feColorMatrix in="SourceAlpha" type="matrix" values="0 0 0 0 0 0 0 0 0 0 0 0 0 0 0 0 0 0 127 0" result="hardAlpha"/>
<feOffset dy="4"/>
<feGaussianBlur stdDeviation="2"/>
<feComposite in2="hardAlpha" operator="out"/>
<feColorMatrix type="matrix" values="0 0 0 0 0 0 0 0 0 0 0 0 0 0 0 0 0 0 0.34 0"/>
<feBlend mode="normal" in2="BackgroundImageFix" result="effect1_dropShadow_145_1689"/>
<feBlend mode="normal" in="SourceGraphic" in2="effect1_dropShadow_145_1689" result="shape"/>
</filter>
</defs>
</svg>
