<svg width="46" height="46" viewBox="0 0 46 46" fill="none" xmlns="http://www.w3.org/2000/svg">
<circle cx="23" cy="23" r="23" fill="#54B5E8"/>
<g filter="url(#filter0_d_145_1693)">
<path d="M35 15.3676C34.7989 15.4589 34.595 15.5433 34.3888 15.6205C33.8865 15.8085 33.4873 15.0329 33.7751 14.5804V14.5804C34.0222 14.1919 33.5856 13.7946 33.1635 13.9787C32.7175 14.1732 32.2577 14.3338 31.788 14.4592C31.4322 14.5541 31.0636 14.4217 30.7845 14.1815C29.928 13.4442 28.8216 13 27.6162 13C24.8968 13 22.6921 15.2607 22.6921 18.0489V18.0489C22.6921 18.6312 22.2417 19.1701 21.6648 19.0913C18.9568 18.7212 16.4939 17.5583 14.5048 15.8371C13.5444 15.0061 12.0042 15.1925 12.0042 16.4625V16.4625C12.0042 17.6443 12.3998 18.7321 13.0629 19.5929C13.342 19.9551 13.0941 20.5227 12.6659 20.3624C12.4444 20.2795 12.2284 20.18 12.0197 20.0646C11.9947 20.0508 11.964 20.0684 11.964 20.097V20.097C11.964 21.9681 12.9569 23.6019 14.4317 24.4743C14.7807 24.6807 14.7393 25.2406 14.3346 25.2166V25.2166C14.0421 25.1992 13.8005 25.474 13.9228 25.7402C14.1606 26.258 14.4817 26.7277 14.8686 27.1311C15.7692 28.0703 16.1598 30.0437 14.9112 30.4102C14.0419 30.6654 13.1238 30.8021 12.1746 30.8021V30.8021C11.8826 30.8021 11.7532 31.197 12.0098 31.3364C13.9616 32.3966 16.1852 33 18.5478 33C27.6047 33 32.5573 25.3064 32.5573 18.6344V18.6344C32.5573 18.2259 32.7432 17.8394 33.0549 17.5753C33.8035 16.9409 34.459 16.1974 35 15.3676" fill="white"/>
</g>
<defs>
<filter id="filter0_d_145_1693" x="7.87207" y="13" width="31.1279" height="28" filterUnits="userSpaceOnUse" color-interpolation-filters="sRGB">
<feFlood flood-opacity="0" result="BackgroundImageFix"/>
<feColorMatrix in="SourceAlpha" type="matrix" values="0 0 0 0 0 0 0 0 0 0 0 0 0 0 0 0 0 0 127 0" result="hardAlpha"/>
<feOffset dy="4"/>
<feGaussianBlur stdDeviation="2"/>
<feComposite in2="hardAlpha" operator="out"/>
<feColorMatrix type="matrix" values="0 0 0 0 0 0 0 0 0 0 0 0 0 0 0 0 0 0 0.34 0"/>
<feBlend mode="normal" in2="BackgroundImageFix" result="effect1_dropShadow_145_1693"/>
<feBlend mode="normal" in="SourceGraphic" in2="effect1_dropShadow_145_1693" result="shape"/>
</filter>
</defs>
</svg>
