<svg width="16" height="16" viewBox="0 0 16 16" fill="none" xmlns="http://www.w3.org/2000/svg">
<path fill-rule="evenodd" clip-rule="evenodd" d="M7.93012 0.666748C5.8851 0.666748 4.22873 2.32312 4.22873 4.36814C4.22873 6.41315 5.8851 8.06953 7.93012 8.06953C9.97514 8.06953 11.6315 6.41315 11.6315 4.36814C11.6315 2.32312 9.97514 0.666748 7.93012 0.666748ZM9.87335 4.36814C9.87335 3.29473 9.00352 2.42491 7.93012 2.42491C6.85672 2.42491 5.98689 3.29473 5.98689 4.36814C5.98689 5.44154 6.85672 6.31137 7.93012 6.31137C9.00352 6.31137 9.87335 5.44154 9.87335 4.36814ZM13.5747 12.6963C13.5747 12.104 10.6784 10.753 7.93012 10.753C5.18184 10.753 2.2855 12.104 2.2855 12.6963V13.7141H13.5747V12.6963ZM0.527344 12.6963C0.527344 10.2348 5.45944 8.99487 7.93012 8.99487C10.4008 8.99487 15.3329 10.2348 15.3329 12.6963V15.4723H0.527344V12.6963Z" fill="#FEAD34"/>
</svg>
