<svg width="24" height="24" viewBox="0 0 24 24" fill="none" xmlns="http://www.w3.org/2000/svg">
<path d="M21 5.6052H2.25V4.8552L18.75 3.5352V4.8552H21V2.6052C21 0.955204 19.6635 -0.202796 18.0315 0.0297041L2.97 2.1807C1.3365 2.4147 0 3.9552 0 5.6052V20.6052C0 21.4009 0.31607 22.1639 0.87868 22.7265C1.44129 23.2891 2.20435 23.6052 3 23.6052H21C21.7956 23.6052 22.5587 23.2891 23.1213 22.7265C23.6839 22.1639 24 21.4009 24 20.6052V8.6052C24 7.80956 23.6839 7.04649 23.1213 6.48388C22.5587 5.92127 21.7956 5.6052 21 5.6052ZM18.75 16.1142C18.4544 16.1141 18.1618 16.0558 17.8887 15.9426C17.6157 15.8294 17.3676 15.6635 17.1587 15.4544C16.9498 15.2454 16.7841 14.9972 16.671 14.7241C16.558 14.451 16.4999 14.1583 16.5 13.8627C16.5001 13.5671 16.5584 13.2745 16.6716 13.0014C16.7848 12.7284 16.9507 12.4803 17.1598 12.2714C17.3688 12.0625 17.617 11.8968 17.8901 11.7837C18.1632 11.6707 18.4559 11.6126 18.7515 11.6127C19.3484 11.6129 19.9208 11.8502 20.3428 12.2725C20.7648 12.6947 21.0017 13.2673 21.0015 13.8642C21.0013 14.4611 20.764 15.0335 20.3417 15.4555C19.9195 15.8775 19.3469 16.1144 18.75 16.1142Z" fill="#FDAF2F" fill-opacity="0.97"/>
</svg>
