<svg width="17" height="16" viewBox="0 0 17 16" fill="none" xmlns="http://www.w3.org/2000/svg">
<path d="M10.2677 14.7728C8.8585 15.2471 7.33517 15.2622 5.91689 14.8158C4.49861 14.3694 3.2585 13.4846 2.37498 12.2887C1.49147 11.0928 1.01011 9.6474 1.00016 8.16057C0.990204 6.67373 1.45217 5.22206 2.3196 4.01443C3.18702 2.80681 4.41517 1.90548 5.82735 1.44014C7.23952 0.974794 8.76292 0.969428 10.1783 1.42481C11.5938 1.88019 12.8282 2.77285 13.7041 3.97434C14.58 5.17582 15.0522 6.6242 15.0527 8.11107C15.03 8.68101 14.961 9.24815 14.8464 9.8069" stroke="white"/>
<path d="M9.68262 13.4673C9.17715 14.0416 8.623 14.5711 8.02637 15.0501" stroke="white"/>
<path d="M8.02637 1.00269C9.92301 2.65977 11.0966 4.99273 11.2965 7.50335C11.3375 7.9591 11.346 8.41719 11.3219 8.87415" stroke="white"/>
<path d="M8.02645 1.00269C6.99739 1.89963 6.17067 3.005 5.60106 4.24557C5.03145 5.48614 4.73196 6.83359 4.72241 8.19864C4.72241 12.7774 6.78001 14.134 8.01797 15.0498" stroke="white"/>
<path d="M1.91284 4.64868H14.1737" stroke="white"/>
<path d="M8.02637 1V15.0499" stroke="white"/>
<path d="M2.10522 11.8787H9.45098" stroke="white"/>
<path d="M1 8.19878L15.0527 8.02637" stroke="white"/>
<path d="M14.1228 15.1346L15.3749 13.8797L13.1138 11.6186L14.3998 10.7961C14.4185 10.7851 14.4335 10.7686 14.4426 10.7488C14.4518 10.729 14.4547 10.707 14.451 10.6855C14.4473 10.6641 14.4372 10.6442 14.422 10.6287C14.4068 10.6131 14.3872 10.6025 14.3659 10.5983L10.0443 9.58645C10.0265 9.58281 10.008 9.58365 9.99058 9.5889C9.97314 9.59415 9.95727 9.60364 9.9444 9.61651C9.93152 9.62939 9.92203 9.64526 9.91678 9.6627C9.91154 9.68014 9.91069 9.69861 9.91433 9.71646L10.8527 14.12C10.8572 14.1414 10.868 14.1609 10.8836 14.1762C10.8993 14.1915 10.9192 14.2017 10.9407 14.2057C10.9622 14.2096 10.9844 14.207 11.0045 14.1983C11.0245 14.1896 11.0416 14.1751 11.0534 14.1567L11.8617 12.8735L14.1228 15.1346Z" stroke="white"/>
</svg>
