<svg style="position: absolute; width: 0; height: 0; overflow: hidden;" xmlns="http://www.w3.org/2000/svg">
    <defs>
        <!-- Navigation Icons -->
        <symbol id="navicon" viewBox="0 0 18 12">
            <path d="M3,18H21V16H3Zm0-5H21V11H3ZM3,6V8H21V6Z" transform="translate(-3 -6)" />
        </symbol>
        <symbol id="close" viewBox="0 0 24 24">
            <path d="M0 0h24v24H0z" fill="none"/>
            <path d="M19 6.41L17.59 5 12 10.59 6.41 5 5 6.41 10.59 12 5 17.59 6.41 19 12 13.41 17.59 19 19 17.59 13.41 12z"/>
        </symbol>
        <symbol id="cancel" viewBox="0 0 24 24">
            <path d="M0 0h24v24H0z" fill="none"/>
            <path d="M12 2C6.47 2 2 6.47 2 12s4.47 10 10 10 10-4.47 10-10S17.53 2 12 2zm5 13.59L15.59 17 12 13.41 8.41 17 7 15.59 10.59 12 7 8.41 8.41 7 12 10.59 15.59 7 17 8.41 13.41 12 17 15.59z"/>
        </symbol>
        <symbol id="apps" width="24" height="24" viewBox="0 0 24 24">
            <path d="M4 8h4V4H4v4zm6 12h4v-4h-4v4zm-6 0h4v-4H4v4zm0-6h4v-4H4v4zm6 0h4v-4h-4v4zm6-10v4h4V4h-4zm-6 4h4V4h-4v4zm6 6h4v-4h-4v4zm0 6h4v-4h-4v4z"/>
            <path d="M0 0h24v24H0z" fill="none"/>
        </symbol>
        <symbol id="more_vert" width="24" height="24" viewBox="0 0 24 24">
            <path d="M0 0h24v24H0z" fill="none"/>
            <path d="M12 8c1.1 0 2-.9 2-2s-.9-2-2-2-2 .9-2 2 .9 2 2 2zm0 2c-1.1 0-2 .9-2 2s.9 2 2 2 2-.9 2-2-.9-2-2-2zm0 6c-1.1 0-2 .9-2 2s.9 2 2 2 2-.9 2-2-.9-2-2-2z"/>
        </symbol>
        <symbol id="mailbox" width="20" height="22" viewBox="0 0 20 22">
            <path d="M20,6H10v6H8V4h6V0H6V6H4A2.006,2.006,0,0,0,2,8V20a2.006,2.006,0,0,0,2,2H20a2.006,2.006,0,0,0,2-2V8A2.006,2.006,0,0,0,20,6Z" transform="translate(-2)" />
        </symbol>
        <symbol id="contact" width="22" height="16" viewBox="0 0 22 16">
            <path d="M15,12a4,4,0,1,0-4-4A4,4,0,0,0,15,12ZM6,10V7H4v3H1v2H4v3H6V12H9V10Zm9,4c-2.67,0-8,1.34-8,4v2H23V18C23,15.34,17.67,14,15,14Z" transform="translate(-1 -4)" />
        </symbol>
        <symbol id="following" width="24" height="18" viewBox="0 0 24 18">
            <path d="M0 0h24v24H0z" fill="none"/>
            <path d="M16.5 13c-1.2 0-3.07.34-4.5 1-1.43-.67-3.3-1-4.5-1C5.33 13 1 14.08 1 16.25V19h22v-2.75c0-2.17-4.33-3.25-6.5-3.25zm-4 4.5h-10v-1.25c0-.54 2.56-1.75 5-1.75s5 1.21 5 1.75v1.25zm9 0H14v-1.25c0-.46-.2-.86-.52-1.22.88-.3 1.96-.53 3.02-.53 2.44 0 5 1.21 5 1.75v1.25zM7.5 12c1.93 0 3.5-1.57 3.5-3.5S9.43 5 7.5 5 4 6.57 4 8.5 5.57 12 7.5 12zm0-5.5c1.1 0 2 .9 2 2s-.9 2-2 2-2-.9-2-2 .9-2 2-2zm9 5.5c1.93 0 3.5-1.57 3.5-3.5S18.43 5 16.5 5 13 6.57 13 8.5s1.57 3.5 3.5 3.5zm0-5.5c1.1 0 2 .9 2 2s-.9 2-2 2-2-.9-2-2 .9-2 2-2z"/>
        </symbol>
        <symbol id="contacts" width="22" height="16" viewBox="0 0 22 16">
            <path d="M15.09 9.07c-.25-1.83-1.43-2.98-3.1-2.98-1.66 0-2.85 1.15-3.09 2.98-.18 1.32 0 2.26.55 2.89.66.76 1.66.86 2.54.86.89 0 1.88-.1 2.54-.86.56-.63.74-1.57.56-2.89zm-1.68 1.9c-.21.24-.65.35-1.42.35-.76 0-1.2-.11-1.41-.35-.24-.28-.31-.86-.2-1.7.1-.76.47-1.68 1.61-1.68.58 0 .95.23 1.2.56.24.32.36.74.41 1.12.12.84.05 1.42-.19 1.7zm2.67 4.09c-.99-.99-2.4-1.52-4.07-1.52h-.03c-1.62 0-3.06.55-4.06 1.55-.87.87-1.34 2.02-1.34 3.25 0 .79.64 1.44 1.44 1.44h7.95c.79 0 1.44-.65 1.44-1.44 0-1.26-.47-2.43-1.33-3.28zm-7.44 3.276c-.318.002-.562-.288-.502-.6.116-.595.406-1.14.842-1.576.72-.72 1.78-1.12 3.01-1.12H12c1.27 0 2.32.37 3.02 1.08.432.432.715.962.83 1.564.06.308-.178.598-.492.6l-6.72.052zM21.75 6.97c-.22-1.7-1.32-2.75-2.86-2.75-1.53 0-2.64 1.05-2.87 2.75-.16 1.2.02 2.07.52 2.65.62.71 1.53.81 2.35.81.81 0 1.73-.1 2.34-.8.39-.45.59-1.07.59-1.85 0-.22-.02-.47-.07-.81zm-4.22.2c.13-.95.59-1.43 1.36-1.43.43 0 .77.15 1 .46.23.29.32.69.35.97.03.22.05.43.05.61 0 .4-.07.69-.21.84-.16.2-.54.28-1.19.28-.66 0-1.04-.08-1.2-.28-.2-.22-.25-.73-.16-1.45zm6.3 8.37c0 .74-.62 1.34-1.37 1.34h-3.75c-.41 0-.76-.34-.76-.76 0-.43.34-.76.76-.76h3.24c.1 0 .2-.05.26-.13.07-.09.1-.2.07-.3-.12-.53-.37-.99-.74-1.36-.61-.62-1.53-.94-2.64-.94-.73 0-1.39.15-1.93.44l-.5.32c-.36.21-.83.1-1.04-.25-.23-.36-.12-.82.24-1.05l.54-.34c.78-.42 1.71-.64 2.66-.64h.03c1.52 0 2.81.47 3.72 1.38.79.8 1.22 1.88 1.21 3.05zM2.18 7.78c0 .78.2 1.4.59 1.85.61.7 1.53.8 2.34.8.82 0 1.73-.1 2.35-.81.5-.58.68-1.45.52-2.65-.23-1.7-1.34-2.75-2.87-2.75-1.54 0-2.64 1.05-2.86 2.75-.05.34-.07.59-.07.81zm4.13.84c-.16.2-.54.28-1.2.28-.65 0-1.03-.08-1.19-.28-.14-.15-.21-.44-.21-.84 0-.18.02-.39.05-.61.03-.28.12-.68.35-.97.23-.31.57-.46 1-.46.77 0 1.23.48 1.36 1.43.09.72.04 1.23-.16 1.45zM.17 15.54c0 .74.62 1.34 1.37 1.34h3.75c.41 0 .76-.34.76-.76 0-.43-.34-.76-.76-.76H2.05c-.1 0-.2-.05-.26-.13-.07-.09-.1-.2-.07-.3.12-.53.37-.99.74-1.36.61-.62 1.53-.94 2.64-.94.73 0 1.39.15 1.93.44l.5.32c.36.21.83.1 1.04-.25.23-.36.12-.82-.24-1.05l-.54-.34c-.78-.42-1.71-.64-2.66-.64H5.1c-1.52 0-2.81.47-3.72 1.38-.79.8-1.22 1.88-1.21 3.05z"/>
        </symbol>

        <symbol id="home" width="20" height="17" viewBox="0 0 20 17">
            <path d="M10,20V14h4v6h5V12h3L12,3,2,12H5v8Z" transform="translate(-2 -3)" />
        </symbol>
        <symbol id="settings" width="19.454" height="20" viewBox="0 0 19.454 20">
            <path d="M19.43,12.98A7.793,7.793,0,0,0,19.5,12a7.793,7.793,0,0,0-.07-.98l2.11-1.65a.5.5,0,0,0,.12-.64l-2-3.46a.5.5,0,0,0-.61-.22l-2.49,1a7.306,7.306,0,0,0-1.69-.98l-.38-2.65A.488.488,0,0,0,14,2H10a.488.488,0,0,0-.49.42L9.13,5.07a7.683,7.683,0,0,0-1.69.98l-2.49-1a.488.488,0,0,0-.61.22l-2,3.46a.493.493,0,0,0,.12.64l2.11,1.65A7.931,7.931,0,0,0,4.5,12a7.931,7.931,0,0,0,.07.98L2.46,14.63a.5.5,0,0,0-.12.64l2,3.46a.5.5,0,0,0,.61.22l2.49-1a7.306,7.306,0,0,0,1.69.98l.38,2.65A.488.488,0,0,0,10,22h4a.488.488,0,0,0,.49-.42l.38-2.65a7.683,7.683,0,0,0,1.69-.98l2.49,1a.488.488,0,0,0,.61-.22l2-3.46a.5.5,0,0,0-.12-.64ZM12,15.5A3.5,3.5,0,1,1,15.5,12,3.5,3.5,0,0,1,12,15.5Z" transform="translate(-2.271 -2)" />
        </symbol>
        <symbol id="delete" viewBox="0 0 24 24">
            <path d="M0 0h24v24H0z" fill="none"/>
            <path d="M6 19c0 1.1.9 2 2 2h8c1.1 0 2-.9 2-2V7H6v12zM19 4h-3.5l-1-1h-5l-1 1H5v2h14V4z"/>
        </symbol>
        <symbol id="mention" viewBox="0 0 24 24">
            <path d="M13.5,0.1C6.9-0.7,0.9,4,0.1,10.5C-0.7,17.1,4,23.1,10.5,23.9c2.1,0.3,4.2,0,6.2-0.9l0,0c0.7-0.3,1-1.1,0.7-1.8c-0.3-0.7-1.1-1-1.8-0.7l0,0c-1.5,0.6-3.1,0.9-4.7,0.7c-5.1-0.6-8.7-5.2-8-10.3c0.6-5.1,5.2-8.7,10.3-8c5.1,0.6,8.7,5.2,8,10.3c-0.1,1-0.6,1.6-1.8,1.6c-1.2,0-1.8-1.3-1.8-2.3V8.8c0-0.8-0.6-1.4-1.4-1.4c-0.3,0-0.5,0.1-0.8,0.2c-0.7-0.6-1.7-1-2.7-1.1c-3-0.4-5.8,1.8-6.2,4.8c-0.4,3,1.8,5.8,4.8,6.2c1.7,0.2,3.4-0.4,4.6-1.5c0.7,0.8,1.7,1.4,2.9,1.5c2.5,0.3,4.8-1.5,5.1-4C24.7,6.9,20,0.9,13.5,0.1z M14.7,12.3c-0.2,1.5-1.6,2.6-3.1,2.4c-1.5-0.2-2.6-1.6-2.4-3.1c0.2-1.5,1.6-2.6,3.1-2.4C13.9,9.4,14.9,10.8,14.7,12.3z"/>
        </symbol>
        <symbol id="admin" viewBox="0 0 24 24">
            <path d="M0 0h24v24H0z" fill="none" />
            <path d="M16.5 12c1.38 0 2.49-1.12 2.49-2.5S17.88 7 16.5 7C15.12 7 14 8.12 14 9.5s1.12 2.5 2.5 2.5zM9 11c1.66 0 2.99-1.34 2.99-3S10.66 5 9 5C7.34 5 6 6.34 6 8s1.34 3 3 3zm7.5 3c-1.83 0-5.5.92-5.5 2.75V19h11v-2.25c0-1.83-3.67-2.75-5.5-2.75zM9 13c-2.33 0-7 1.17-7 3.5V19h7v-2.25c0-.85.33-2.34 2.37-3.47C10.5 13.1 9.66 13 9 13z" />
        </symbol>
        <symbol id="hashtag" viewBox="0 0 32 32">
            <path d="M30,12V8h-5.004l1-8h-4l-1,8h-7.998l1-8h-4l-1,8H2v4h6.498L7.5,20H2v4h5l-1,8h4l1-8h8l-1.002,8H22 l1-8h7v-4h-6.5l0.996-8H30z M19.5,20h-8l0.998-8h7.998L19.5,20z"/>
        </symbol>
        <symbol id="eye-open" viewBox="0 0 24 24">
            <path d="M0 0h24v24H0z" fill="none"/><path d="M12 4.5C7 4.5 2.73 7.61 1 12c1.73 4.39 6 7.5 11 7.5s9.27-3.11 11-7.5c-1.73-4.39-6-7.5-11-7.5zM12 17c-2.76 0-5-2.24-5-5s2.24-5 5-5 5 2.24 5 5-2.24 5-5 5zm0-8c-1.66 0-3 1.34-3 3s1.34 3 3 3 3-1.34 3-3-1.34-3-3-3z"/>
        </symbol>
        <symbol id="eye-closed" viewBox="0 0 24 24">
            <path d="M0 0h24v24H0zm0 0h24v24H0zm0 0h24v24H0zm0 0h24v24H0z" fill="none"/>
            <path d="M12 7c2.76 0 5 2.24 5 5 0 .65-.13 1.26-.36 1.83l2.92 2.92c1.51-1.26 2.7-2.89 3.43-4.75-1.73-4.39-6-7.5-11-7.5-1.4 0-2.74.25-3.98.7l2.16 2.16C10.74 7.13 11.35 7 12 7zM2 4.27l2.28 2.28.46.46C3.08 8.3 1.78 10.02 1 12c1.73 4.39 6 7.5 11 7.5 1.55 0 3.03-.3 4.38-.84l.42.42L19.73 22 21 20.73 3.27 3 2 4.27zM7.53 9.8l1.55 1.55c-.05.21-.08.43-.08.65 0 1.66 1.34 3 3 3 .22 0 .44-.03.65-.08l1.55 1.55c-.67.33-1.41.53-2.2.53-2.76 0-5-2.24-5-5 0-.79.2-1.53.53-2.2zm4.31-.78l3.15 3.15.02-.16c0-1.66-1.34-3-3-3l-.17.01z"/>
        </symbol>
        <symbol id="pin" viewBox="0 0 24 24">
            <rect fill="none" height="24" width="24"/>
            <path d="M16,9V4l1,0c0.55,0,1-0.45,1-1v0c0-0.55-0.45-1-1-1H7C6.45,2,6,2.45,6,3v0 c0,0.55,0.45,1,1,1l1,0v5c0,1.66-1.34,3-3,3h0v2h5.97v7l1,1l1-1v-7H19v-2h0C17.34,12,16,10.66,16,9z" fill-rule="evenodd"/>
        </symbol>
        <symbol id="upgrade" viewBox="0 0 24 24">
            <rect fill="none" height="24" width="24"/>
            <path d="M16,18v2H8v-2H16z M11,7.99V16h2V7.99h3L12,4L8,7.99H11z"/>
        </symbol>
        <symbol id="voteup" width="12" height="7.41" viewBox="0 0 12 7.41">
            <path d="M7.41,15.41,12,10.83l4.59,4.58L18,14,12,8,6,14Z" transform="translate(-6 -8)" />
        </symbol>
        <symbol id="votedown" width="12" height="7.41" viewBox="0 0 12 7.41">
            <path d="M7.41,7.84,12,12.42l4.59-4.58L18,9.25l-6,6-6-6Z" transform="translate(-6 -7.84)" />
        </symbol>
        <symbol id="dropdown-icon" viewBox="0 0 9.204 36.815">
            <path d="M14.6,13.2A4.6,4.6,0,1,0,10,8.6,4.615,4.615,0,0,0,14.6,13.2Zm0,4.6a4.6,4.6,0,1,0,4.6,4.6A4.615,4.615,0,0,0,14.6,17.806Zm0,13.806a4.6,4.6,0,1,0,4.6,4.6A4.615,4.615,0,0,0,14.6,31.611Z" transform="translate(-10 -4)" />
        </symbol>
        <symbol id="dropdown-arrow" viewBox="0 0 24 24" width="24" height="24">
            <path d="M8.71 11.71l2.59 2.59c.39.39 1.02.39 1.41 0l2.59-2.59c.63-.63.18-1.71-.71-1.71H9.41c-.89 0-1.33 1.08-.7 1.71z" />
        </symbol>
        <symbol id="forward-arrow" viewBox="0 0 24 24" width="24" height="24">
            <path d="M0 0h24v24H0z" fill="none" />
            <path d="M12 4l-1.41 1.41L16.17 11H4v2h12.17l-5.58 5.59L12 20l8-8z" />
        </symbol>
        <symbol id="backwards-arrow" viewBox="0 0 24 24" width="24" height="24">
            <path d="M0 0h24v24H0z" fill="none" />
            <path d="M20 11H7.83l5.59-5.59L12 4l-8 8 8 8 1.41-1.41L7.83 13H20v-2z" />
        </symbol>
        <symbol id="double-arrow">
            <g><rect fill="none" height="24" width="24"/></g><g><g><polygon points="15.5,5 11,5 16,12 11,19 15.5,19 20.5,12"/><polygon points="8.5,5 4,5 9,12 4,19 8.5,19 13.5,12"/></g></g>
        </symbol>
        <symbol id="print" width="20" height="18" viewBox="0 0 20 18">
            <path d="M19,8H5a3,3,0,0,0-3,3v6H6v4H18V17h4V11A3,3,0,0,0,19,8ZM16,19H8V14h8Zm3-7a1,1,0,1,1,1-1A1,1,0,0,1,19,12ZM18,3H6V7H18Z" transform="translate(-2 -3)" />
        </symbol>
        <symbol id="heart" width="24" height="24" viewBox="0 0 24 24">
            <path d="M0 0h24v24H0z" fill="none"/>
            <path d="M12 21.35l-1.45-1.32C5.4 15.36 2 12.28 2 8.5 2 5.42 4.42 3 7.5 3c1.74 0 3.41.81 4.5 2.09C13.09 3.81 14.76 3 16.5 3 19.58 3 22 5.42 22 8.5c0 3.78-3.4 6.86-8.55 11.54L12 21.35z"/>
        </symbol>
        <symbol id="heart-outline" width="24" height="24" viewBox="0 0 24 24">
            <path d="M0 0h24v24H0V0z" fill="none"/>
            <path d="M16.5 3c-1.74 0-3.41.81-4.5 2.09C10.91 3.81 9.24 3 7.5 3 4.42 3 2 5.42 2 8.5c0 3.78 3.4 6.86 8.55 11.54L12 21.35l1.45-1.32C18.6 15.36 22 12.28 22 8.5 22 5.42 19.58 3 16.5 3zm-4.4 15.55l-.1.1-.1-.1C7.14 14.24 4 11.39 4 8.5 4 6.5 5.5 5 7.5 5c1.54 0 3.04.99 3.57 2.36h1.87C13.46 5.99 14.96 5 16.5 5c2 0 3.5 1.5 3.5 3.5 0 2.89-3.14 5.74-7.9 10.05z"/>
        </symbol>
        <symbol id="star" width="20" height="19" viewBox="0 0 20 19">
            <path d="M12,17.27,18.18,21l-1.64-7.03L22,9.24l-7.19-.61L12,2,9.19,8.63,2,9.24l5.46,4.73L5.82,21Z" transform="translate(-2 -2)" />
        </symbol>
        <symbol id="rating-star" width="255" height="240" viewBox="0 0 51 48">
            <path d="m25,1 6,17h18l-14,11 5,17-15-10-15,10 5-17-14-11h18z" />
        </symbol>
        <symbol id="flag" width="15" height="17" viewBox="0 0 15 17">
            <path d="M14.4,6,14,4H5V21H7V14h5.6l.4,2h7V6Z" transform="translate(-5 -4)" />
        </symbol>
        <symbol id="circle-info" viewBox="0 0 24 24">
            <path d="M 12 2 C 6.4889971 2 2 6.4889971 2 12 C 2 17.511003 6.4889971 22 12 22 C 17.511003 22 22 17.511003 22 12 C 22 6.4889971 17.511003 2 12 2 z M 12 4 C 16.430123 4 20 7.5698774 20 12 C 20 16.430123 16.430123 20 12 20 C 7.5698774 20 4 16.430123 4 12 C 4 7.5698774 7.5698774 4 12 4 z M 11 7 L 11 9 L 13 9 L 13 7 L 11 7 z M 11 11 L 11 17 L 13 17 L 13 11 L 11 11 z" />
        </symbol>
        <symbol id="circle-x" viewBox="0 0 20 20">
            <path d="M14.59,8,12,10.59,9.41,8,8,9.41,10.59,12,8,14.59,9.41,16,12,13.41,14.59,16,16,14.59,13.41,12,16,9.41ZM12,2A10,10,0,1,0,22,12,9.991,9.991,0,0,0,12,2Zm0,18a8,8,0,1,1,8-8A8.011,8.011,0,0,1,12,20Z" transform="translate(-2 -2)" />
        </symbol>
        <symbol id="magnify" viewBox="0 0 40 40">
            <path d="M29.718,26.512H28.03l-.6-.577a13.915,13.915,0,1,0-1.5,1.5l.577.6v1.689L37.2,40.384,40.384,37.2Zm-12.825,0a9.619,9.619,0,1,1,9.619-9.619A9.606,9.606,0,0,1,16.894,26.512Z" transform="translate(-3 -3)" />
        </symbol>
        <symbol id="magnify-twitter" viewBox="0 0 24 24">
            <path d="M21.53 20.47l-3.66-3.66C19.195 15.24 20 13.214 20 11c0-4.97-4.03-9-9-9s-9 4.03-9 9 4.03 9 9 9c2.215 0 4.24-.804 5.808-2.13l3.66 3.66c.147.146.34.22.53.22s.385-.073.53-.22c.295-.293.295-.767.002-1.06zM3.5 11c0-4.135 3.365-7.5 7.5-7.5s7.5 3.365 7.5 7.5-3.365 7.5-7.5 7.5-7.5-3.365-7.5-7.5z" />
        </symbol>
        <symbol id="link-out" width="18" height="18" viewBox="0 0 18 18">
            <path d="M19,19H5V5h7V3H5A2,2,0,0,0,3,5V19a2,2,0,0,0,2,2H19a2.006,2.006,0,0,0,2-2V12H19ZM14,3V5h3.59L7.76,14.83l1.41,1.41L19,6.41V10h2V3Z" transform="translate(-3 -3)" />
        </symbol>
        <symbol id="link" width="20" height="10" viewBox="0 0 20 10">
            <path d="M3.9,12A3.1,3.1,0,0,1,7,8.9h4V7H7A5,5,0,0,0,7,17h4V15.1H7A3.1,3.1,0,0,1,3.9,12ZM8,13h8V11H8Zm9-6H13V8.9h4a3.1,3.1,0,1,1,0,6.2H13V17h4A5,5,0,0,0,17,7Z" transform="translate(-2 -7)" fill="#2699fb" />
        </symbol>
        <symbol id="exit" width="18" height="18" viewBox="0 0 24 24">
            <path d="M0 0h24v24H0z" fill="none" />
            <path d="M10.09 15.59L11.5 17l5-5-5-5-1.41 1.41L12.67 11H3v2h9.67l-2.58 2.59zM19 3H5c-1.11 0-2 .9-2 2v4h2V5h14v14H5v-4H3v4c0 1.1.89 2 2 2h14c1.1 0 2-.9 2-2V5c0-1.1-.9-2-2-2z" />
        </symbol>
        <symbol id="reply" width="14.122" height="11.769" viewBox="0 0 14.122 11.769">
            <path d="M8.492,8.138V5L3,10.492l5.492,5.492V12.767c3.923,0,6.669,1.255,8.63,4C16.338,12.846,13.984,8.923,8.492,8.138Z" transform="translate(-3 -5)" />
        </symbol>
        <symbol id="image" viewBox="0 0 24 24">
            <path d="M21.3,2.7v18.7H2.7V2.7H21.3 M21.3,0H2.7C1.2,0,0,1.2,0,2.7v18.7C0,22.8,1.2,24,2.7,24h18.7c1.5,0,2.7-1.2,2.7-2.7V2.7C24,1.2,22.8,0,21.3,0z M14.9,11.8l-4,5.2L8,13.5l-4,5.1h16C20,18.7,14.9,11.8,14.9,11.8z"/>
        </symbol>
        <symbol id="camera" viewBox="0 0 24 24">
            <path d="M0,0h24v24H0V0z" fill="none"/>
            <path d="M21.6,3.42h-3.8L15.6,1H8.4L6.2,3.42H2.4C1.08,3.42,0,4.52,0,5.85v14.55c0,1.33,1.08,2.42,2.4,2.42h19.2c1.32,0,2.4-1.09,2.4-2.42V5.85C24,4.52,22.92,3.42,21.6,3.42z M21.6,20.39H2.4V5.85h4.86l2.2-2.42h5.09l2.2,2.42h4.86V20.39zM12,7.06c-3.31,0-6,2.72-6,6.06s2.69,6.06,6,6.06s6-2.72,6-6.06S15.31,7.06,12,7.06z M12,16.76c-1.98,0-3.6-1.64-3.6-3.64s1.62-3.64,3.6-3.64s3.6,1.64,3.6,3.64S13.98,16.76,12,16.76z"/>
        </symbol>
        <symbol id="camera-flip" viewBox="0 0 24 24">
            <rect width="24" height="24" fill="none"/>
            <path d="M21.6,3.61h-3.8l-2.19-2.4H8.41l-2.19,2.4h-3.8c-1.32,0-2.4,1.08-2.4,2.4V20.4c0,1.32,1.08,2.4,2.4,2.4H21.6c1.32,0,2.4-1.08,2.4-2.4V6.01C24,4.69,22.92,3.61,21.6,3.61z M21.6,20.4H2.42V6.01h3.8h1.06l0.71-0.78l1.49-1.62h5.08l1.49,1.62l0.71,0.78h1.06h3.8V20.4z"/>
            <path d="M12.01,18c-2.65,0-4.8-2.15-4.8-4.8h2.4l-3-3l-3,3h2.4c0,3.31,2.69,6,6,6c1.03,0,1.98-0.29,2.83-0.74l-0.89-0.89C13.36,17.85,12.7,18,12.01,18z"/>
            <path d="M12.01,7.21c-1.03,0-1.98,0.29-2.83,0.74l0.89,0.88c0.59-0.26,1.25-0.42,1.94-0.42c2.65,0,4.8,2.15,4.8,4.8h-2.4l3,3l3-3H18C18,9.9,15.32,7.21,12.01,7.21z"/>
        </symbol>
        <symbol id="share" viewBox="0 0 24 24" width="24"  height="24">
            <path d="M8.2,6.8l2.56-2.56V17.79a1.24,1.24,0,0,0,2.48,0V4.24L15.8,6.8a1.24,1.24,0,1,0,1.76-1.75h0L12.88.36a1.26,1.26,0,0,0-1.76,0h0L6.44,5.05A1.24,1.24,0,0,0,8.19,6.81Z"/><path d="M22.76,10.76A1.23,1.23,0,0,0,21.52,12v9.52h-19V12A1.24,1.24,0,0,0,0,12v9.93A2.07,2.07,0,0,0,2.07,24H21.93A2.07,2.07,0,0,0,24,21.93V12A1.24,1.24,0,0,0,22.76,10.76Z"/>
        <symbol>

        <!-- location icons -->
        <symbol id="location-on" height="24" viewBox="0 0 24 24" width="24">
            <path d="M12 2C8.13 2 5 5.13 5 9c0 5.25 7 13 7 13s7-7.75 7-13c0-3.87-3.13-7-7-7zm0 9.5c-1.38 0-2.5-1.12-2.5-2.5s1.12-2.5 2.5-2.5 2.5 1.12 2.5 2.5-1.12 2.5-2.5 2.5z"/><path d="M0 0h24v24H0z" fill="none"/>
        <symbol>
        <symbol id="location-off" height="24" viewBox="0 0 24 24" width="24">
            <path d="M0 0h24v24H0zm11.75 11.47l-.11-.11z" fill="none"/>
            <path d="M12 6.5c1.38 0 2.5 1.12 2.5 2.5 0 .74-.33 1.39-.83 1.85l3.63 3.63c.98-1.86 1.7-3.8 1.7-5.48 0-3.87-3.13-7-7-7-1.98 0-3.76.83-5.04 2.15l3.19 3.19c.46-.52 1.11-.84 1.85-.84zm4.37 9.6l-4.63-4.63-.11-.11L3.27 3 2 4.27l3.18 3.18C5.07 7.95 5 8.47 5 9c0 5.25 7 13 7 13s1.67-1.85 3.38-4.35L18.73 21 20 19.73l-3.63-3.63z"/>        <symbol>
        <symbol id="gps-fixed" height="24" viewBox="0 0 24 24" width="24">
            <path d="M0 0h24v24H0z" fill="none"/><path d="M12 8c-2.21 0-4 1.79-4 4s1.79 4 4 4 4-1.79 4-4-1.79-4-4-4zm8.94 3c-.46-4.17-3.77-7.48-7.94-7.94V1h-2v2.06C6.83 3.52 3.52 6.83 3.06 11H1v2h2.06c.46 4.17 3.77 7.48 7.94 7.94V23h2v-2.06c4.17-.46 7.48-3.77 7.94-7.94H23v-2h-2.06zM12 19c-3.87 0-7-3.13-7-7s3.13-7 7-7 7 3.13 7 7-3.13 7-7 7z"/>
        </symbol>
        <symbol id="gps-search" height="24" viewBox="0 0 24 24" width="24">
            <path d="M0 0h24v24H0z" fill="none"/><path d="M20.94 11c-.46-4.17-3.77-7.48-7.94-7.94V1h-2v2.06C6.83 3.52 3.52 6.83 3.06 11H1v2h2.06c.46 4.17 3.77 7.48 7.94 7.94V23h2v-2.06c4.17-.46 7.48-3.77 7.94-7.94H23v-2h-2.06zM12 19c-3.87 0-7-3.13-7-7s3.13-7 7-7 7 3.13 7 7-3.13 7-7 7z"/>        </symbol>
        <symbol id="gps-disabled" height="24" viewBox="0 0 24 24" width="24">
            <path d="M0 0h24v24H0z" fill="none"/><path d="M20.94 11c-.46-4.17-3.77-7.48-7.94-7.94V1h-2v2.06c-1.13.12-2.19.46-3.16.97l1.5 1.5C10.16 5.19 11.06 5 12 5c3.87 0 7 3.13 7 7 0 .94-.19 1.84-.52 2.65l1.5 1.5c.5-.96.84-2.02.97-3.15H23v-2h-2.06zM3 4.27l2.04 2.04C3.97 7.62 3.25 9.23 3.06 11H1v2h2.06c.46 4.17 3.77 7.48 7.94 7.94V23h2v-2.06c1.77-.2 3.38-.91 4.69-1.98L19.73 21 21 19.73 4.27 3 3 4.27zm13.27 13.27C15.09 18.45 13.61 19 12 19c-3.87 0-7-3.13-7-7 0-1.61.55-3.09 1.46-4.27l9.81 9.81z"/>
        </symbol>

        <symbol id="clear" width="14" height="14" viewBox="0 0 14 14">
            <path d="M19,6.41,17.59,5,12,10.59,6.41,5,5,6.41,10.59,12,5,17.59,6.41,19,12,13.41,17.59,19,19,17.59,13.41,12Z" transform="translate(-5 -5)" />
        </symbol>
        <symbol id="plus" viewBox="0 0 14 14">
            <path d="M19,13H13v6H11V13H5V11h6V5h2v6h6Z" transform="translate(-5 -5)" />
        </symbol>
        <symbol id="check" viewBox="0 0 17.59 13.41">
            <path d="M9,16.17,4.83,12,3.41,13.41,9,19,21,7,19.59,5.59Z" transform="translate(-3.41 -5.59)" />
        </symbol>
        <symbol id="check-circle" viewBox="0 0 24 24">
            <path d="M0 0h24v24H0z" fill="none" />
            <path d="M12 2C6.48 2 2 6.48 2 12s4.48 10 10 10 10-4.48 10-10S17.52 2 12 2zm-2 15l-5-5 1.41-1.41L10 14.17l7.59-7.59L19 8l-9 9z" />
        </symbol>
        <symbol id="refresh" viewBox="0 0 24 24">
            <path d="M17.65 6.35C16.2 4.9 14.21 4 12 4c-4.42 0-7.99 3.58-7.99 8s3.57 8 7.99 8c3.73 0 6.84-2.55 7.73-6h-2.08c-.82 2.33-3.04 4-5.65 4-3.31 0-6-2.69-6-6s2.69-6 6-6c1.66 0 3.14.69 4.22 1.78L13 11h7V4l-2.35 2.35z"/>
            <path d="M0 0h24v24H0z" fill="none"/>
        </symbol>
        <symbol id="pro-badge" viewBox="0 0 24 24">
            <path d="M0 0h24v24H0z" fill="none" />
            <path d="M12 1L3 5v6c0 5.55 3.84 10.74 9 12 5.16-1.26 9-6.45 9-12V5l-9-4zm-2 16l-4-4 1.41-1.41L10 14.17l6.59-6.59L18 9l-8 8z"/>
        </symbol>
        <symbol id="policy-badge" viewBox="0 0 24 24">
            <g>
                <rect fill="none" height="24" width="24" />
            </g>
            <g>
                <g />
                <g>
                    <path d="M21,5l-9-4L3,5v6c0,5.55,3.84,10.74,9,12c2.3-0.56,4.33-1.9,5.88-3.71l-3.12-3.12c-1.94,1.29-4.58,1.07-6.29-0.64 c-1.95-1.95-1.95-5.12,0-7.07c1.95-1.95,5.12-1.95,7.07,0c1.71,1.71,1.92,4.35,0.64,6.29l2.9,2.9C20.29,15.69,21,13.38,21,11V5z" />
                    <circle cx="12" cy="12" r="3" />
                </g>
            </g>
        </symbol>
        <symbol id="copy" height="24" viewBox="0 0 24 24" width="24">
            <path d="M0 0h24v24H0V0z" fill="none"/>
            <path d="M16 1H4c-1.1 0-2 .9-2 2v14h2V3h12V1zm-1 4H8c-1.1 0-1.99.9-1.99 2L6 21c0 1.1.89 2 1.99 2H19c1.1 0 2-.9 2-2V11l-6-6zM8 21V7h6v5h5v9H8z"/>
        </symbol>
        <symbol id="post-add" viewBox="0 0 24 24">
            <g>
                <rect fill="none" height="24" width="24" />
            </g>
            <g>
                <g />
                <g>
                    <path d="M17,19.22H5V7h7V5H5C3.9,5,3,5.9,3,7v12c0,1.1,0.9,2,2,2h12c1.1,0,2-0.9,2-2v-7h-2V19.22z" />
                    <path d="M19,2h-2v3h-3c0.01,0.01,0,2,0,2h3v2.99c0.01,0.01,2,0,2,0V7h3V5h-3V2z" />
                    <rect height="2" width="8" x="7" y="9" />
                    <polygon points="7,12 7,14 15,14 15,12 12,12" />
                    <rect height="2" width="8" x="7" y="15" />
                </g>
            </g>
        </symbol>
        <symbol id="feed" viewBox="0 0 24 24">
            <svg xmlns="http://www.w3.org/2000/svg" enable-background="new 0 0 24 24" height="24" viewBox="0 0 24 24" width="24">
                <g>
                    <rect fill="none" height="24" width="24" />
                </g>
                <g>
                    <g />
                    <g>
                        <path d="M8,8H6v7c0,1.1,0.9,2,2,2h9v-2H8V8z" />
                        <path d="M20,3h-8c-1.1,0-2,0.9-2,2v6c0,1.1,0.9,2,2,2h8c1.1,0,2-0.9,2-2V5C22,3.9,21.1,3,20,3z M20,11h-8V7h8V11z" />
                        <path d="M4,12H2v7c0,1.1,0.9,2,2,2h9v-2H4V12z" />
                    </g>
                </g>
                <g display="none">
                    <g display="inline" />
                    <g display="inline">
                        <path d="M8,8H6v7c0,1.1,0.9,2,2,2h9v-2H8V8z" />
                        <path d="M20,3h-8c-1.1,0-2,0.9-2,2v6c0,1.1,0.9,2,2,2h8c1.1,0,2-0.9,2-2V5C22,3.9,21.1,3,20,3z M20,11h-8V7h8V11z" />
                        <path d="M4,12H2v7c0,1.1,0.9,2,2,2h9v-2H4V12z" />
                    </g>
                </g>
            </svg>
        </symbol>
        <symbol id="mail-unread" width="24" height="24" viewBox="0 0 24 24">
            <path d="M20 4H4c-1.1 0-1.99.9-1.99 2L2 18c0 1.1.9 2 2 2h16c1.1 0 2-.9 2-2V6c0-1.1-.9-2-2-2zm0 4l-8 5-8-5V6l8 5 8-5v2z" />
            <path d="M0 0h24v24H0z" fill="none" />
        </symbol>
        <symbol id="mail-read" width="24" height="24" viewBox="0 0 24 24">
            <path fill="none" d="M0 0h24v24H0z" />
            <path d="M20 4H4c-1.1 0-1.99.9-1.99 2L2 18c0 1.1.9 2 2 2h16c1.1 0 2-.9 2-2V6c0-1.1-.9-2-2-2zm0 14H4V8l8 5 8-5v10zm-8-7L4 6h16l-8 5z" />
        </symbol>
        <symbol id="attachment" viewBox="0 0 28 28">
            <path d="M19.989,6.714V19.857c0,2.526-2.447,4.571-5.469,4.571s-5.469-2.046-5.469-4.571V5.571a3.177,3.177,0,0,1,3.418-2.857,3.177,3.177,0,0,1,3.418,2.857v12a1.274,1.274,0,0,1-1.367,1.143,1.274,1.274,0,0,1-1.367-1.143V6.714H11.1V17.571a3.177,3.177,0,0,0,3.418,2.857,3.177,3.177,0,0,0,3.418-2.857v-12C17.938,3.046,15.491,1,12.469,1S7,3.046,7,5.571V19.857c0,3.474,3.363,6.286,7.52,6.286s7.52-2.811,7.52-6.286V6.714Z" />
        </symbol>
        <symbol id="upload" width="24" height="24" viewBox="0 0 24 24">
            <path fill="none" d="M0 0h24v24H0V0z" />
            <path d="M19.35 10.04C18.67 6.59 15.64 4 12 4 9.11 4 6.6 5.64 5.35 8.04 2.34 8.36 0 10.91 0 14c0 3.31 2.69 6 6 6h13c2.76 0 5-2.24 5-5 0-2.64-2.05-4.78-4.65-4.96zM19 18H6c-2.21 0-4-1.79-4-4 0-2.05 1.53-3.76 3.56-3.97l1.07-.11.5-.95C8.08 7.14 9.94 6 12 6c2.62 0 4.88 1.86 5.39 4.43l.3 1.5 1.53.11c1.56.1 2.78 1.41 2.78 2.96 0 1.65-1.35 3-3 3zM8 13h2.55v3h2.9v-3H16l-4-4z" />
        </symbol>
        <symbol id="edit" width="24" height="24" viewBox="0 0 24 24">
            <path d="M0 0h24v24H0z" fill="none"/>
            <path d="M3 17.25V21h3.75L17.81 9.94l-3.75-3.75L3 17.25zM20.71 7.04c.39-.39.39-1.02 0-1.41l-2.34-2.34c-.39-.39-1.02-.39-1.41 0l-1.83 1.83 3.75 3.75 1.83-1.83z"/>
        </symbol>
        <symbol id="dollar" width="24" height="24" viewBox="0 0 24 24">
            <path d="M11.8 10.9c-2.27-.59-3-1.2-3-2.15 0-1.09 1.01-1.85 2.7-1.85 1.78 0 2.44.85 2.5 2.1h2.21c-.07-1.72-1.12-3.3-3.21-3.81V3h-3v2.16c-1.94.42-3.5 1.68-3.5 3.61 0 2.31 1.91 3.46 4.7 4.13 2.5.6 3 1.48 3 2.41 0 .69-.49 1.79-2.7 1.79-2.06 0-2.87-.92-2.98-2.1h-2.2c.12 2.19 1.76 3.42 3.68 3.83V21h3v-2.15c1.95-.37 3.5-1.5 3.5-3.55 0-2.84-2.43-3.81-4.7-4.4z" />
            <path d="M0 0h24v24H0z" fill="none" />
        </symbol>
        <symbol id="earth" width="24" height="24" viewBox="0 0 24 24">
            <path d="M0 0h24v24H0z" fill="none"/>
            <path d="M12 2C6.48 2 2 6.48 2 12s4.48 10 10 10 10-4.48 10-10S17.52 2 12 2zm-1 17.93c-3.95-.49-7-3.85-7-7.93 0-.62.08-1.21.21-1.79L9 15v1c0 1.1.9 2 2 2v1.93zm6.9-2.54c-.26-.81-1-1.39-1.9-1.39h-1v-3c0-.55-.45-1-1-1H8v-2h2c.55 0 1-.45 1-1V7h2c1.1 0 2-.9 2-2v-.41c2.93 1.19 5 4.06 5 7.41 0 2.08-.8 3.97-2.1 5.39z"/>
        </symbol>
        <symbol id="comment" width="24" height="24" viewBox="0 0 24 24">
            <path d="M0 0h24v24H0V0z" fill="none"/>
            <path d="M20 17.17L18.83 16H4V4h16v13.17zM20 2H4c-1.1 0-2 .9-2 2v12c0 1.1.9 2 2 2h14l4 4V4c0-1.1-.9-2-2-2z"/>
        </symbol>

        <!-- Time and dates -->
        <symbol id="calendar-start" width="24" height="24" viewBox="0 0 24 24">
            <path d="M0 0h24v24H0z" fill="none"/>
            <path d="M19 3h-1V1h-2v2H8V1H6v2H5c-1.11 0-1.99.9-1.99 2L3 19c0 1.1.89 2 2 2h14c1.1 0 2-.9 2-2V5c0-1.1-.9-2-2-2zm0 16H5V8h14v11zM7 10h5v5H7z"/>
        </symbol>
        <symbol id="calendar-end" width="24" height="24" viewBox="0 0 24 24">
            <path d="M17 12h-5v5h5v-5zM16 1v2H8V1H6v2H5c-1.11 0-1.99.9-1.99 2L3 19c0 1.1.89 2 2 2h14c1.1 0 2-.9 2-2V5c0-1.1-.9-2-2-2h-1V1h-2zm3 18H5V8h14v11z"/>
            <path d="M0 0h24v24H0z" fill="none"/>
        </symbol>
        <symbol id="time" width="24" height="24" viewBox="0 0 24 24">
            <path d="M11.99 2C6.47 2 2 6.48 2 12s4.47 10 9.99 10C17.52 22 22 17.52 22 12S17.52 2 11.99 2zM12 20c-4.42 0-8-3.58-8-8s3.58-8 8-8 8 3.58 8 8-3.58 8-8 8z"/><path d="M0 0h24v24H0z" fill="none"/>
            <path d="M12.5 7H11v6l5.25 3.15.75-1.23-4.5-2.67z"/>
        </symbol>
        <symbol id="twitter-retweet" viewBox="0 0 24 24">
            <path d="M23.615 15.477c-.47-.47-1.23-.47-1.697 0l-1.326 1.326V7.4c0-2.178-1.772-3.95-3.95-3.95h-5.2c-.663 0-1.2.538-1.2 1.2s.537 1.2 1.2 1.2h5.2c.854 0 1.55.695 1.55 1.55v9.403l-1.326-1.326c-.47-.47-1.23-.47-1.697 0s-.47 1.23 0 1.697l3.374 3.375c.234.233.542.35.85.35s.613-.116.848-.35l3.375-3.376c.467-.47.467-1.23-.002-1.697zM12.562 18.5h-5.2c-.854 0-1.55-.695-1.55-1.55V7.547l1.326 1.326c.234.235.542.352.848.352s.614-.117.85-.352c.468-.47.468-1.23 0-1.697L5.46 3.8c-.47-.468-1.23-.468-1.697 0L.388 7.177c-.47.47-.47 1.23 0 1.697s1.23.47 1.697 0L3.41 7.547v9.403c0 2.178 1.773 3.95 3.95 3.95h5.2c.664 0 1.2-.538 1.2-1.2s-.535-1.2-1.198-1.2z"/>
        </symbol>

        <!-- socials -->
        <!-- <svg xmlns="http://www.w3.org/2000/svg"  fill="none" stroke="#000" stroke-width="2.3" stroke-linecap="round" stroke-linejoin="round"> -->
        <symbol id="codepen" viewBox="0 0 96 96">
	        <path d="M48,0C21.49,0,0,21.49,0,48s21.49,48,48,48c26.51,0,48-21.49,48-48S74.51,0,48,0z M48,88.12c-22.12,0-40.12-18-40.12-40.12S25.88,7.88,48,7.88c22.12,0,40.12,18,40.12,40.12S70.12,88.12,48,88.12z"/>
	        <path d="M77.66,38.62c-0.01-0.04-0.01-0.07-0.02-0.11c-0.01-0.07-0.03-0.14-0.04-0.21c-0.01-0.04-0.03-0.08-0.04-0.12c-0.02-0.06-0.04-0.12-0.07-0.19c-0.02-0.04-0.04-0.08-0.06-0.12c-0.03-0.06-0.05-0.11-0.09-0.17c-0.02-0.04-0.05-0.08-0.07-0.12c-0.03-0.05-0.07-0.1-0.11-0.15c-0.03-0.04-0.06-0.07-0.09-0.11c-0.04-0.05-0.08-0.09-0.13-0.14c-0.03-0.03-0.07-0.07-0.1-0.1c-0.05-0.04-0.1-0.08-0.14-0.12c-0.04-0.03-0.08-0.06-0.12-0.09c-0.01-0.01-0.03-0.02-0.04-0.03L49.41,18.75c-0.86-0.57-1.97-0.57-2.83,0L19.46,36.84c-0.01,0.01-0.03,0.02-0.04,0.03c-0.04,0.03-0.08,0.06-0.11,0.09c-0.05,0.04-0.1,0.08-0.14,0.12c-0.04,0.03-0.07,0.07-0.1,0.1c-0.04,0.04-0.09,0.09-0.13,0.14c-0.03,0.04-0.06,0.07-0.09,0.11c-0.04,0.05-0.07,0.1-0.11,0.15c-0.03,0.04-0.05,0.08-0.07,0.12c-0.03,0.05-0.06,0.11-0.09,0.17c-0.02,0.04-0.04,0.08-0.06,0.12c-0.02,0.06-0.05,0.12-0.07,0.19c-0.01,0.04-0.03,0.08-0.04,0.12c-0.02,0.07-0.03,0.14-0.04,0.21c-0.01,0.04-0.02,0.07-0.02,0.11c-0.01,0.11-0.02,0.22-0.02,0.33v18.09c0,0.11,0.01,0.22,0.02,0.33c0,0.04,0.01,0.07,0.02,0.11c0.01,0.07,0.03,0.14,0.04,0.21c0.01,0.04,0.03,0.08,0.04,0.12c0.02,0.06,0.04,0.12,0.07,0.19c0.02,0.04,0.04,0.08,0.06,0.12c0.03,0.06,0.06,0.11,0.09,0.17c0.02,0.04,0.05,0.08,0.07,0.12c0.03,0.05,0.07,0.1,0.11,0.15c0.03,0.04,0.06,0.07,0.09,0.11c0.04,0.05,0.08,0.09,0.13,0.14c0.03,0.03,0.07,0.07,0.1,0.1c0.05,0.04,0.09,0.08,0.14,0.12c0.04,0.03,0.07,0.06,0.11,0.09c0.01,0.01,0.03,0.02,0.04,0.03l27.13,18.09c0.43,0.29,0.92,0.43,1.42,0.43c0.49,0,0.99-0.14,1.41-0.43l27.13-18.09c0.01-0.01,0.03-0.02,0.04-0.03c0.04-0.03,0.08-0.06,0.12-0.09c0.05-0.04,0.1-0.08,0.14-0.12c0.04-0.03,0.07-0.07,0.1-0.1c0.04-0.04,0.09-0.09,0.13-0.14c0.03-0.04,0.06-0.07,0.09-0.11c0.04-0.05,0.07-0.1,0.11-0.15c0.02-0.04,0.05-0.08,0.07-0.12c0.03-0.06,0.06-0.11,0.09-0.17c0.02-0.04,0.04-0.08,0.06-0.12c0.02-0.06,0.05-0.12,0.07-0.19c0.01-0.04,0.03-0.08,0.04-0.12c0.02-0.07,0.03-0.14,0.04-0.21c0.01-0.04,0.02-0.07,0.02-0.11c0.01-0.11,0.02-0.22,0.02-0.33V38.96C77.68,38.85,77.67,38.73,77.66,38.62z M50.55,25.64l19.98,13.32l-8.93,5.97l-11.06-7.4V25.64z M45.45,25.64v11.9l-11.06,7.4l-8.93-5.97L45.45,25.64z M23.42,43.73L29.8,48l-6.38,4.27V43.73z M45.45,70.36L25.46,57.04l8.93-5.97l11.06,7.4V70.36z M48,54.03L38.98,48L48,41.97L57.02,48L48,54.03z M50.55,70.36v-11.9l11.06-7.4l8.93,5.97L50.55,70.36z M72.58,52.27L66.2,48l6.38-4.27V52.27z"/>
        </symbol>
        <symbol id="google" viewBox="0 0 24 24">
            <path d="M12.24 10.285V14.4h6.806c-.275 1.765-2.056 5.174-6.806 5.174-4.095 0-7.439-3.389-7.439-7.574s3.345-7.574 7.439-7.574c2.33 0 3.891.989 4.785 1.849l3.254-3.138C18.189 1.186 15.479 0 12.24 0c-6.635 0-12 5.365-12 12s5.365 12 12 12c6.926 0 11.52-4.869 11.52-11.726 0-.788-.085-1.39-.189-1.989H12.24z" />
        </symbol>
        <symbol id="github" viewBox="0 0 16 16">
            <path d="M8 0C3.58 0 0 3.58 0 8C0 11.54 2.29 14.53 5.47 15.59C5.87 15.66 6.02 15.42 6.02 15.21C6.02 15.02 6.01 14.39 6.01 13.72C4 14.09 3.48 13.23 3.32 12.78C3.23 12.55 2.84 11.84 2.5 11.65C2.22 11.5 1.82 11.13 2.49 11.12C3.12 11.11 3.57 11.7 3.72 11.94C4.44 13.15 5.59 12.81 6.05 12.6C6.12 12.08 6.33 11.73 6.56 11.53C4.78 11.33 2.92 10.64 2.92 7.58C2.92 6.71 3.23 5.99 3.74 5.43C3.66 5.23 3.38 4.41 3.82 3.31C3.82 3.31 4.49 3.1 6.02 4.13C6.66 3.95 7.34 3.86 8.02 3.86C8.7 3.86 9.38 3.95 10.02 4.13C11.55 3.09 12.22 3.31 12.22 3.31C12.66 4.41 12.38 5.23 12.3 5.43C12.81 5.99 13.12 6.7 13.12 7.58C13.12 10.65 11.25 11.33 9.47 11.53C9.76 11.78 10.01 12.26 10.01 13.01C10.01 14.08 10 14.94 10 15.21C10 15.42 10.15 15.67 10.55 15.59C13.71 14.53 16 11.53 16 8C16 3.58 12.42 0 8 0Z" />
        </symbol>
        <symbol id="facebook" viewBox="0 0 60.734 60.733">
            <path d="M57.378,0.001H3.352C1.502,0.001,0,1.5,0,3.353v54.026c0,1.853,1.502,3.354,3.352,3.354h29.086V37.214h-7.914v-9.167h7.914v-6.76c0-7.843,4.789-12.116,11.787-12.116c3.355,0,6.232,0.251,7.071,0.36v8.198l-4.854,0.002c-3.805,0-4.539,1.809-4.539,4.462v5.851h9.078l-1.187,9.166h-7.892v23.52h15.475c1.852,0,3.355-1.503,3.355-3.351V3.351C60.731,1.5,59.23,0.001,57.378,0.001z" />
        </symbol>
        <symbol id="stack-exchange" viewBox="0 0 120 120">
            <path class="st0" fill="#376db6" d="M22.4 57.5h74.8v15.4H22.4z" />
            <path class="st1" fill="#4ca2da" d="M22.4 37.6h74.8V53H22.4z"/>
            <path class="st2" fill="#91d8f4" d="M85.5 17H34.4c-6.6 0-12 5.5-12 12.3v4h74.8v-4C97.2 22.5 92 17 85.5 17z"/>
            <path class="st3" fill="#1e5397" d="M22.4 77.3v4c0 6.8 5.4 12.3 12 12.3h32v16.3l15.8-16.3h3.5c6.6 0 12-5.5 12-12.3v-4H22.4z"/>
        </symbol>
        <symbol id="linkedin" viewBox="0 0 24 24">
            <path d="M16 8a6 6 0 0 1 6 6v7h-4v-7a2 2 0 0 0-2-2 2 2 0 0 0-2 2v7h-4v-7a6 6 0 0 1 6-6z"></path>
            <rect x="2" y="9" width="4" height="12"></rect>
            <circle cx="4" cy="4" r="2"></circle>
        </symbol>
        <symbol id="twitter" viewBox="0 0 72 72">
            <path d="M67.812 16.141a26.246 26.246 0 0 1-7.519 2.06 13.134 13.134 0 0 0 5.756-7.244 26.127 26.127 0 0 1-8.313 3.176A13.075 13.075 0 0 0 48.182 10c-7.229 0-13.092 5.861-13.092 13.093 0 1.026.118 2.021.338 2.981-10.885-.548-20.528-5.757-26.987-13.679a13.048 13.048 0 0 0-1.771 6.581c0 4.542 2.312 8.551 5.824 10.898a13.048 13.048 0 0 1-5.93-1.638c-.002.055-.002.11-.002.162 0 6.345 4.513 11.638 10.504 12.84a13.177 13.177 0 0 1-3.449.457c-.846 0-1.667-.078-2.465-.231 1.667 5.2 6.499 8.986 12.23 9.09a26.276 26.276 0 0 1-16.26 5.606A26.21 26.21 0 0 1 4 55.976a37.036 37.036 0 0 0 20.067 5.882c24.083 0 37.251-19.949 37.251-37.249 0-.566-.014-1.134-.039-1.694a26.597 26.597 0 0 0 6.533-6.774z"/>
        </symbol>
        <symbol id="twitter-verified" viewBox="0 0 24 24">
            <path d="M22.5 12.5c0-1.58-.875-2.95-2.148-3.6.154-.435.238-.905.238-1.4 0-2.21-1.71-3.998-3.818-3.998-.47 0-.92.084-1.336.25C14.818 2.415 13.51 1.5 12 1.5s-2.816.917-3.437 2.25c-.415-.165-.866-.25-1.336-.25-2.11 0-3.818 1.79-3.818 4 0 .494.083.964.237 1.4-1.272.65-2.147 2.018-2.147 3.6 0 1.495.782 2.798 1.942 3.486-.02.17-.032.34-.032.514 0 2.21 1.708 4 3.818 4 .47 0 .92-.086 1.335-.25.62 1.334 1.926 2.25 3.437 2.25 1.512 0 2.818-.916 3.437-2.25.415.163.865.248 1.336.248 2.11 0 3.818-1.79 3.818-4 0-.174-.012-.344-.033-.513 1.158-.687 1.943-1.99 1.943-3.484zm-6.616-3.334l-4.334 6.5c-.145.217-.382.334-.625.334-.143 0-.288-.04-.416-.126l-.115-.094-2.415-2.415c-.293-.293-.293-.768 0-1.06s.768-.294 1.06 0l1.77 1.767 3.825-5.74c.23-.345.696-.436 1.04-.207.346.23.44.696.21 1.04z"/>
        </symbol>
        <symbol id="twitter-comment" viewBox="0 0 24 24">
            <path d="M14.046 2.242l-4.148-.01h-.002c-4.374 0-7.8 3.427-7.8 7.802 0 4.098 3.186 7.206 7.465 7.37v3.828c0 .108.044.286.12.403.142.225.384.347.632.347.138 0 .277-.038.402-.118.264-.168 6.473-4.14 8.088-5.506 1.902-1.61 3.04-3.97 3.043-6.312v-.017c-.006-4.367-3.43-7.787-7.8-7.788zm3.787 12.972c-1.134.96-4.862 3.405-6.772 4.643V16.67c0-.414-.335-.75-.75-.75h-.396c-3.66 0-6.318-2.476-6.318-5.886 0-3.534 2.768-6.302 6.3-6.302l4.147.01h.002c3.532 0 6.3 2.766 6.302 6.296-.003 1.91-.942 3.844-2.514 5.176z"/>
        </symbol>
        <symbol id="twitter-heart" viewBox="0 0 24 24">
            <path d="M12 21.638h-.014C9.403 21.59 1.95 14.856 1.95 8.478c0-3.064 2.525-5.754 5.403-5.754 2.29 0 3.83 1.58 4.646 2.73.814-1.148 2.354-2.73 4.645-2.73 2.88 0 5.404 2.69 5.404 5.755 0 6.376-7.454 13.11-10.037 13.157H12zM7.354 4.225c-2.08 0-3.903 1.988-3.903 4.255 0 5.74 7.034 11.596 8.55 11.658 1.518-.062 8.55-5.917 8.55-11.658 0-2.267-1.823-4.255-3.903-4.255-2.528 0-3.94 2.936-3.952 2.965-.23.562-1.156.562-1.387 0-.014-.03-1.425-2.965-3.954-2.965z" />
        </symbol>
        <symbol id="youtube" viewBox="0 -77 512.00213 512">
            <path fill="#f00" d="m501.453125 56.09375c-5.902344-21.933594-23.195313-39.222656-45.125-45.128906-40.066406-10.964844-200.332031-10.964844-200.332031-10.964844s-160.261719 0-200.328125 10.546875c-21.507813 5.902344-39.222657 23.617187-45.125 45.546875-10.542969 40.0625-10.542969 123.148438-10.542969 123.148438s0 83.503906 10.542969 123.148437c5.90625 21.929687 23.195312 39.222656 45.128906 45.128906 40.484375 10.964844 200.328125 10.964844 200.328125 10.964844s160.261719 0 200.328125-10.546875c21.933594-5.902344 39.222656-23.195312 45.128906-45.125 10.542969-40.066406 10.542969-123.148438 10.542969-123.148438s.421875-83.507812-10.546875-123.570312zm0 0"/>
            <path d="m204.96875 256 133.269531-76.757812-133.269531-76.757813zm0 0" fill="#fff"/>
        </symbol>
        <symbol id="twitter-message" viewBox="0 0 24 24">
            <path d="M19.25 3.018H4.75C3.233 3.018 2 4.252 2 5.77v12.495c0 1.518 1.233 2.753 2.75 2.753h14.5c1.517 0 2.75-1.235 2.75-2.753V5.77c0-1.518-1.233-2.752-2.75-2.752zm-14.5 1.5h14.5c.69 0 1.25.56 1.25 1.25v.714l-8.05 5.367c-.273.18-.626.182-.9-.002L3.5 6.482v-.714c0-.69.56-1.25 1.25-1.25zm14.5 14.998H4.75c-.69 0-1.25-.56-1.25-1.25V8.24l7.24 4.83c.383.256.822.384 1.26.384.44 0 .877-.128 1.26-.383l7.24-4.83v10.022c0 .69-.56 1.25-1.25 1.25z"/>
        </symbol>
        <symbol id="sketchfab" viewBox="0 0 24 24">
            <path d="M12,0A12,12,0,1,0,24,12,12,12,0,0,0,12,0ZM10.93,19.18l-5.18-3v-6L10.93,13Zm.93-7.65L5.72,8.28l6.14-3.54L18,8.28ZM18,16.2l-5.16,3V13L18,10.18Z"/>
        </symbol>
    </defs>
</svg>